<svg width="460" height="460" version="1.1" xmlns="http://www.w3.org/2000/svg" desc="Created with imagetracer.js version 1.2.6" ><path fill="rgb(0,0,0)" stroke="rgb(0,0,0)" stroke-width="1" opacity="1" d="M 0 0 L 460 0 L 460 460 L 0 460 L 0 0 Z M 314 102 L 311 103 L 104 310 L 102 314 Q 101 319 104 322 L 111 326 L 119 325 L 326 117 L 325 108 L 318 102 L 314 102 Z M 334 220 L 330 222 L 326 227 L 322 230 L 307 246 L 303 249 L 287 266 L 284 268 L 268 285 L 265 287 L 249 304 L 245 307 L 230 323 L 226 326 L 220 334 L 221 343 L 228 347 Q 235 348 238 345 L 250 332 L 258 325 L 268 314 L 279 304 Q 278 301 281 302 L 288 294 L 302 281 Q 301 278 304 279 L 307 275 L 315 268 L 325 257 L 333 250 L 345 238 L 347 234 Q 348 226 345 224 Q 343 218 334 220 Z " /><path fill="rgb(252,252,252)" stroke="rgb(252,252,252)" stroke-width="1" opacity="1" d="M 313.5 102 L 317.5 102 L 325 107.5 L 326 116.5 L 118.5 325 L 110.5 326 L 104 321.5 Q 101.3 319.2 102 313.5 L 104 309.5 L 310.5 103 L 313.5 102 Z " /><path fill="rgb(252,252,252)" stroke="rgb(252,252,252)" stroke-width="1" opacity="1" d="M 333.5 220 Q 342.5 218.5 345 223.5 Q 348.4 226.1 347 233.5 L 345 237.5 L 332.5 250 L 325 256.5 L 314.5 268 L 307 274.5 L 303.5 279 Q 301.3 278.3 302 280.5 L 288 293.5 L 280.5 302 Q 278.3 301.3 279 303.5 L 268 313.5 L 257.5 325 L 250 331.5 L 237.5 345 Q 234.5 348 227.5 347 L 221 342.5 L 220 333.5 L 225.5 326 L 230 322.5 L 244.5 307 L 249 303.5 L 264.5 287 L 268 284.5 L 283.5 268 L 287 265.5 L 302.5 249 L 307 245.5 L 321.5 230 L 326 226.5 L 329.5 222 L 333.5 220 Z " /></svg>