<svg width="616" height="616" version="1.1" xmlns="http://www.w3.org/2000/svg" desc="Created with imagetracer.js version 1.2.6" ><path fill="rgb(11,33,0)" stroke="rgb(11,33,0)" stroke-width="1" opacity="0.996078431372549" d="M 297.5 0 L 318.5 0 L 319.5 1 L 334.5 1 L 335.5 2 L 352.5 3 L 386.5 10 L 417.5 20 Q 444.9 30.6 468.5 45 L 503.5 70 L 524.5 90 L 526 90 L 526 91.5 L 553 121.5 L 567 141.5 Q 585.6 169.9 598 204.5 L 606 230.5 L 613 266.5 L 614 285.5 L 615 286.5 L 615 328.5 L 614 329.5 L 614 340.5 L 613 341.5 L 612 355.5 L 605 388.5 Q 598.2 413.7 588 435.5 Q 560.4 494.9 514.5 536 Q 473.2 573.7 416.5 596 L 388.5 605 L 355.5 612 L 341.5 613 L 340.5 614 L 329.5 614 L 328.5 615 L 286.5 615 L 285.5 614 L 274.5 614 L 273.5 613 L 259.5 612 L 230.5 606 L 204.5 598 L 175.5 586 L 132.5 561 L 111.5 545 L 91.5 526 L 90 526 L 90 524.5 L 70 503.5 L 45 468.5 Q 30.6 444.9 20 417.5 L 10 386.5 L 3 352.5 L 2 335.5 L 1 334.5 L 1 319.5 L 0 318.5 L 0 296.5 L 1 295.5 L 1 280.5 L 2 279.5 L 3 263.5 L 7 241.5 L 19 200.5 L 30 174.5 Q 56.8 119.8 99.5 81 Q 138 45 190.5 23 Q 214.1 13.1 241.5 7 L 263.5 3 L 270.5 3 L 271.5 2 L 296.5 1 L 297.5 0 Z M 297 24 L 296 25 L 282 25 L 281 26 L 265 27 Q 258 30 249 30 Q 221 36 198 46 Q 152 66 118 97 Q 75 135 49 191 L 37 222 L 31 244 L 26 272 L 25 293 L 24 294 L 25 336 L 26 337 L 26 344 L 27 345 L 29 363 L 34 384 L 48 423 L 59 445 L 70 462 Q 69 464 72 463 L 79 476 L 105 506 Q 142 545 195 568 Q 217 578 243 584 L 263 588 L 277 589 L 278 590 L 288 590 L 289 591 L 328 591 L 329 590 L 339 590 L 340 589 L 354 588 L 382 582 L 410 573 Q 460 553 498 519 Q 518 500 535 478 L 552 453 L 568 422 L 577 399 L 583 379 L 588 355 L 589 342 L 590 341 L 590 331 L 591 330 L 591 286 L 590 285 L 589 268 L 582 234 L 574 209 Q 551 150 511 110 Q 468 65 406 41 L 380 33 L 351 27 L 335 26 L 334 25 L 320 25 L 319 24 L 297 24 Z " /><path fill="rgb(11,33,0)" stroke="rgb(11,33,0)" stroke-width="1" opacity="0.996078431372549" d="M 218.5 203 L 219 205.5 L 218 205.5 L 218.5 203 Z " /><path fill="rgb(11,33,0)" stroke="rgb(11,33,0)" stroke-width="1" opacity="0.996078431372549" d="M 169.5 448 L 168.5 450 L 169.5 448 Z " /><path fill="rgb(11,33,0)" stroke="rgb(11,33,0)" stroke-width="1" opacity="0.996078431372549" d="M 473.5 470 L 479.5 477 L 473.5 470 Z " /><path fill="rgb(11,33,0)" stroke="rgb(11,33,0)" stroke-width="1" opacity="0.996078431372549" d="M 118.5 499 L 117.5 501 L 118.5 499 Z " /><path fill="rgb(11,33,0)" stroke="rgb(11,33,0)" stroke-width="1" opacity="0.996078431372549" d="M 115.5 503 L 114.5 505 L 115.5 503 Z " /><path fill="rgb(199,241,206)" stroke="rgb(199,241,206)" stroke-width="1" opacity="1" d="M 287.5 25 L 328.5 25 L 329.5 26 L 347.5 27 L 385.5 35 L 417 46.5 L 413.5 47 L 398.5 43 L 391.5 43 Q 387 44 388 50.5 L 390.5 54 L 416.5 60 L 421.5 60 L 426 53.5 L 424 50.5 L 425.5 50 L 444 59.5 L 441 70.5 L 440 94.5 L 444 117.5 L 451 136 L 272 135.5 L 277 123.5 L 280 109 L 260.5 111 L 245.5 116 Q 229.2 123.2 218.5 136 L 83.5 136 L 86 132.5 Q 100.7 111.2 120.5 95 Q 153.9 64.9 198.5 46 L 241.5 32 L 261.5 28 L 275.5 27 L 276.5 26 L 286.5 26 L 287.5 25 Z M 388 80 L 381 85 L 382 91 L 387 93 L 418 93 L 420 92 L 422 89 L 421 82 L 417 80 L 388 80 Z M 420 112 L 391 120 L 386 124 L 387 131 L 391 133 L 419 126 L 426 122 Q 427 116 425 114 L 420 112 Z " /><path fill="rgb(199,241,206)" stroke="rgb(199,241,206)" stroke-width="1" opacity="1" d="M 326.5 353 Q 329.5 352.1 328 356.5 Q 327.5 359.5 323.5 359 L 322 357.5 L 326.5 353 Z " /><path fill="rgb(199,241,206)" stroke="rgb(199,241,206)" stroke-width="1" opacity="1" d="M 338 365 Q 342.9 363.4 341 369 L 336.5 371 Q 333.8 369.8 336 368.5 Q 335.3 365.9 338 367 L 338 365 Z " /><path fill="rgb(199,241,206)" stroke="rgb(199,241,206)" stroke-width="1" opacity="1" d="M 360.5 377 L 363 378.5 L 362 384 Q 356.8 385.8 359 378.5 L 360.5 377 Z " /><path fill="rgb(199,241,206)" stroke="rgb(199,241,206)" stroke-width="1" opacity="1" d="M 380.5 380 L 383 381.5 L 380.5 388 Q 377.8 386.8 379 381.5 L 380.5 380 Z " /><path fill="rgb(199,241,206)" stroke="rgb(199,241,206)" stroke-width="1" opacity="1" d="M 399 383 L 403 384.5 L 402 390 L 399 390 L 399 383 Z " /><path fill="rgb(254,164,0)" stroke="rgb(254,164,0)" stroke-width="1" opacity="1" d="M 392.5 43 L 420.5 48 L 425 51.5 Q 426.3 57.8 422.5 59 L 419.5 60 L 391.5 54 L 389 51.5 L 388 47.5 L 390.5 44 L 392.5 43 Z " /><path fill="rgb(254,164,0)" stroke="rgb(254,164,0)" stroke-width="1" opacity="1" d="M 444 60 Q 486.9 82.4 518 117.5 Q 548.7 150.8 568 195.5 L 564.5 197 L 537.5 197 L 518.5 193 L 497.5 184 Q 482.4 175.6 471 163.5 Q 454.7 146.8 446 122.5 L 441 99.5 L 441 74.5 L 444 60 Z " /><path fill="rgb(254,164,0)" stroke="rgb(254,164,0)" stroke-width="1" opacity="1" d="M 385.5 81 L 418.5 81 L 421 83.5 L 422 87.5 L 418.5 92 L 385.5 92 L 382 89.5 Q 381.4 84.1 383 82 L 385.5 81 Z " /><path fill="rgb(254,164,0)" stroke="rgb(254,164,0)" stroke-width="1" opacity="1" d="M 418.5 113 Q 423.6 112.4 425 115.5 L 426 119.5 L 422.5 124 L 390.5 132 L 387 129.5 L 386 125.5 L 388.5 122 L 418.5 113 Z " /><path fill="rgb(254,164,0)" stroke="rgb(254,164,0)" stroke-width="1" opacity="1" d="M 429.5 143 Q 435.3 142.3 436 146.5 Q 437.3 152.8 433.5 154 L 409.5 167 L 405.5 167 Q 401 166 402 159.5 L 408.5 154 L 429.5 143 Z " /><path fill="rgb(254,164,0)" stroke="rgb(254,164,0)" stroke-width="1" opacity="1" d="M 452.5 169 L 457 171 L 458 176.5 L 450.5 185 L 436.5 198 L 430.5 199 Q 427.3 197.3 427 192.5 L 444.5 174 L 452.5 169 Z " /><path fill="rgb(254,164,0)" stroke="rgb(254,164,0)" stroke-width="1" opacity="1" d="M 476.5 192 Q 482.8 190.8 484 194.5 L 484 200.5 L 467.5 225 L 461 224 L 460 217.5 L 471 198.5 L 476.5 192 Z " /><path fill="rgb(254,164,0)" stroke="rgb(254,164,0)" stroke-width="1" opacity="1" d="M 508.5 208 Q 514.8 206.8 516 210.5 L 517 214.5 L 510 237.5 L 506.5 242 L 502.5 243 L 499 240.5 L 498 235.5 L 505 212.5 L 508.5 208 Z " /><path fill="rgb(254,164,0)" stroke="rgb(254,164,0)" stroke-width="1" opacity="1" d="M 547.5 217 Q 553.8 215.8 555 219.5 L 556 221.5 L 556 247.5 L 553.5 251 L 549.5 252 L 545 248.5 L 544 220.5 L 547.5 217 Z " /><path fill="rgb(0,0,0)" stroke="rgb(0,0,0)" stroke-width="1" opacity="0.2627450980392157" d="M 286.5 0 L 297 0.5 L 286.5 1 L 286.5 0 Z " /><path fill="rgb(0,0,0)" stroke="rgb(0,0,0)" stroke-width="1" opacity="0.2627450980392157" d="M 319.5 0 L 330 0.5 L 319.5 1 L 319.5 0 Z " /><path fill="rgb(0,0,0)" stroke="rgb(0,0,0)" stroke-width="1" opacity="0.2627450980392157" d="M 274.5 1 L 280 1.5 L 274.5 2 L 274.5 1 Z " /><path fill="rgb(0,0,0)" stroke="rgb(0,0,0)" stroke-width="1" opacity="0.2627450980392157" d="M 335.5 1 L 341 1.5 L 335.5 2 L 335.5 1 Z " /><path fill="rgb(0,0,0)" stroke="rgb(0,0,0)" stroke-width="1" opacity="0.2627450980392157" d="M 266.5 2 L 271 2.5 L 266.5 3 L 266.5 2 Z " /><path fill="rgb(0,0,0)" stroke="rgb(0,0,0)" stroke-width="1" opacity="0.2627450980392157" d="M 345.5 2 L 349 2.5 L 345.5 3 L 345.5 2 Z " /><path fill="rgb(0,0,0)" stroke="rgb(0,0,0)" stroke-width="1" opacity="0.2627450980392157" d="M 259.5 3 L 263 3.5 L 259.5 4 L 259.5 3 Z " /><path fill="rgb(0,0,0)" stroke="rgb(0,0,0)" stroke-width="1" opacity="0.2627450980392157" d="M 353.5 3 L 356 3.5 L 353.5 4 L 353.5 3 Z " /><path fill="rgb(0,0,0)" stroke="rgb(0,0,0)" stroke-width="1" opacity="0.2627450980392157" d="M 254.5 4 L 257 4.5 L 254.5 5 L 254.5 4 Z " /><path fill="rgb(0,0,0)" stroke="rgb(0,0,0)" stroke-width="1" opacity="0.2627450980392157" d="M 359.5 4 L 362 4.5 L 359.5 5 L 359.5 4 Z " /><path fill="rgb(0,0,0)" stroke="rgb(0,0,0)" stroke-width="1" opacity="0.2627450980392157" d="M 248.5 5 L 251 5.5 L 248.5 6 L 248.5 5 Z " /><path fill="rgb(0,0,0)" stroke="rgb(0,0,0)" stroke-width="1" opacity="0.2627450980392157" d="M 364.5 5 L 368 5.5 L 364.5 6 L 364.5 5 Z " /><path fill="rgb(0,0,0)" stroke="rgb(0,0,0)" stroke-width="1" opacity="0.2627450980392157" d="M 243.5 6 L 246 6.5 L 243.5 7 L 243.5 6 Z " /><path fill="rgb(0,0,0)" stroke="rgb(0,0,0)" stroke-width="1" opacity="0.2627450980392157" d="M 374.5 7 L 377 7.5 L 374.5 8 L 374.5 7 Z " /><path fill="rgb(0,0,0)" stroke="rgb(0,0,0)" stroke-width="1" opacity="0.2627450980392157" d="M 234.5 8 L 237 8.5 L 234.5 9 L 234.5 8 Z " /><path fill="rgb(0,0,0)" stroke="rgb(0,0,0)" stroke-width="1" opacity="0.2627450980392157" d="M 230.5 9 L 233 9.5 L 230.5 10 L 230.5 9 Z " /><path fill="rgb(0,0,0)" stroke="rgb(0,0,0)" stroke-width="1" opacity="0.2627450980392157" d="M 186.5 24 L 188 24.5 L 184.5 26 L 184.5 25 L 186.5 24 Z " /><path fill="rgb(0,0,0)" stroke="rgb(0,0,0)" stroke-width="1" opacity="0.2627450980392157" d="M 432.5 26 L 436 27.5 L 434.5 28 L 432.5 26 Z " /><path fill="rgb(0,0,0)" stroke="rgb(0,0,0)" stroke-width="1" opacity="0.2627450980392157" d="M 173.5 30 L 172.5 32 L 164.5 36 L 165.5 34 L 173.5 30 Z " /><path fill="rgb(0,0,0)" stroke="rgb(0,0,0)" stroke-width="1" opacity="0.2627450980392157" d="M 455.5 37 L 459 39.5 L 457.5 39 L 455.5 37 Z " /><path fill="rgb(0,0,0)" stroke="rgb(0,0,0)" stroke-width="1" opacity="0.2627450980392157" d="M 156.5 39 L 155.5 41 L 156.5 39 Z " /><path fill="rgb(0,0,0)" stroke="rgb(0,0,0)" stroke-width="1" opacity="0.2627450980392157" d="M 462.5 41 L 463.5 43 L 462.5 41 Z " /><path fill="rgb(0,0,0)" stroke="rgb(0,0,0)" stroke-width="1" opacity="0.2627450980392157" d="M 149.5 43 L 148.5 45 L 149.5 43 Z " /><path fill="rgb(0,0,0)" stroke="rgb(0,0,0)" stroke-width="1" opacity="0.2627450980392157" d="M 472.5 47 L 473.5 49 L 472.5 47 Z " /><path fill="rgb(0,0,0)" stroke="rgb(0,0,0)" stroke-width="1" opacity="0.2627450980392157" d="M 141.5 48 L 140.5 50 L 141.5 48 Z " /><path fill="rgb(0,0,0)" stroke="rgb(0,0,0)" stroke-width="1" opacity="0.2627450980392157" d="M 475.5 49 L 476.5 51 L 475.5 49 Z " /><path fill="rgb(0,0,0)" stroke="rgb(0,0,0)" stroke-width="1" opacity="0.2627450980392157" d="M 138.5 50 L 137.5 52 L 138.5 50 Z " /><path fill="rgb(0,0,0)" stroke="rgb(0,0,0)" stroke-width="1" opacity="0.2627450980392157" d="M 478.5 51 L 479.5 53 L 478.5 51 Z " /><path fill="rgb(0,0,0)" stroke="rgb(0,0,0)" stroke-width="1" opacity="0.2627450980392157" d="M 135.5 52 L 134.5 54 L 135.5 52 Z " /><path fill="rgb(0,0,0)" stroke="rgb(0,0,0)" stroke-width="1" opacity="0.2627450980392157" d="M 481.5 53 L 482.5 55 L 481.5 53 Z " /><path fill="rgb(0,0,0)" stroke="rgb(0,0,0)" stroke-width="1" opacity="0.2627450980392157" d="M 132.5 54 L 131.5 56 L 132.5 54 Z " /><path fill="rgb(0,0,0)" stroke="rgb(0,0,0)" stroke-width="1" opacity="0.2627450980392157" d="M 484.5 55 L 486.5 58 L 484.5 55 Z " /><path fill="rgb(0,0,0)" stroke="rgb(0,0,0)" stroke-width="1" opacity="0.2627450980392157" d="M 128.5 57 L 127.5 59 L 128.5 57 Z " /><path fill="rgb(0,0,0)" stroke="rgb(0,0,0)" stroke-width="1" opacity="0.2627450980392157" d="M 488.5 58 L 489.5 60 L 488.5 58 Z " /><path fill="rgb(0,0,0)" stroke="rgb(0,0,0)" stroke-width="1" opacity="0.2627450980392157" d="M 125.5 59 L 124.5 61 L 125.5 59 Z " /><path fill="rgb(0,0,0)" stroke="rgb(0,0,0)" stroke-width="1" opacity="0.2627450980392157" d="M 491.5 60 L 493.5 63 L 491.5 60 Z " /><path fill="rgb(0,0,0)" stroke="rgb(0,0,0)" stroke-width="1" opacity="0.2627450980392157" d="M 121.5 62 L 119.5 65 L 121.5 62 Z " /><path fill="rgb(0,0,0)" stroke="rgb(0,0,0)" stroke-width="1" opacity="0.2627450980392157" d="M 496.5 64 L 498.5 67 L 496.5 64 Z " /><path fill="rgb(0,0,0)" stroke="rgb(0,0,0)" stroke-width="1" opacity="0.2627450980392157" d="M 116.5 66 L 114.5 69 L 116.5 66 Z " /><path fill="rgb(0,0,0)" stroke="rgb(0,0,0)" stroke-width="1" opacity="0.2627450980392157" d="M 500.5 67 L 502.5 70 L 500.5 67 Z " /><path fill="rgb(0,0,0)" stroke="rgb(0,0,0)" stroke-width="1" opacity="0.2627450980392157" d="M 112.5 69 L 108.5 74 L 112.5 69 Z " /><path fill="rgb(0,0,0)" stroke="rgb(0,0,0)" stroke-width="1" opacity="0.2627450980392157" d="M 506.5 72 L 510.5 77 L 506.5 72 Z " /><path fill="rgb(0,0,0)" stroke="rgb(0,0,0)" stroke-width="1" opacity="0.2627450980392157" d="M 105.5 75 L 100.5 81 L 105.5 75 Z " /><path fill="rgb(0,0,0)" stroke="rgb(0,0,0)" stroke-width="1" opacity="0.2627450980392157" d="M 513.5 78 L 524.5 90 L 513.5 78 Z " /><path fill="rgb(0,0,0)" stroke="rgb(0,0,0)" stroke-width="1" opacity="0.2627450980392157" d="M 93.5 86 L 86.5 94 L 93.5 86 Z " /><path fill="rgb(0,0,0)" stroke="rgb(0,0,0)" stroke-width="1" opacity="0.2627450980392157" d="M 526.5 91 L 536.5 102 L 526.5 91 Z " /><path fill="rgb(0,0,0)" stroke="rgb(0,0,0)" stroke-width="1" opacity="0.2627450980392157" d="M 80.5 100 L 75.5 106 L 80.5 100 Z " /><path fill="rgb(0,0,0)" stroke="rgb(0,0,0)" stroke-width="1" opacity="0.2627450980392157" d="M 539.5 105 L 543.5 110 L 539.5 105 Z " /><path fill="rgb(0,0,0)" stroke="rgb(0,0,0)" stroke-width="1" opacity="0.2627450980392157" d="M 73.5 108 L 69.5 113 L 73.5 108 Z " /><path fill="rgb(0,0,0)" stroke="rgb(0,0,0)" stroke-width="1" opacity="0.2627450980392157" d="M 545.5 112 L 547.5 115 L 545.5 112 Z " /><path fill="rgb(0,0,0)" stroke="rgb(0,0,0)" stroke-width="1" opacity="0.2627450980392157" d="M 68.5 114 L 66.5 117 L 68.5 114 Z " /><path fill="rgb(0,0,0)" stroke="rgb(0,0,0)" stroke-width="1" opacity="0.2627450980392157" d="M 549.5 117 L 551.5 120 L 549.5 117 Z " /><path fill="rgb(0,0,0)" stroke="rgb(0,0,0)" stroke-width="1" opacity="0.2627450980392157" d="M 64.5 119 L 62.5 122 L 64.5 119 Z " /><path fill="rgb(0,0,0)" stroke="rgb(0,0,0)" stroke-width="1" opacity="0.2627450980392157" d="M 553.5 122 L 554.5 124 L 553.5 122 Z " /><path fill="rgb(0,0,0)" stroke="rgb(0,0,0)" stroke-width="1" opacity="0.2627450980392157" d="M 60.5 124 L 59.5 126 L 60.5 124 Z " /><path fill="rgb(0,0,0)" stroke="rgb(0,0,0)" stroke-width="1" opacity="0.2627450980392157" d="M 556.5 126 L 557.5 128 L 556.5 126 Z " /><path fill="rgb(0,0,0)" stroke="rgb(0,0,0)" stroke-width="1" opacity="0.2627450980392157" d="M 58.5 127 L 57.5 129 L 58.5 127 Z " /><path fill="rgb(0,0,0)" stroke="rgb(0,0,0)" stroke-width="1" opacity="0.2627450980392157" d="M 558.5 129 L 559.5 131 L 558.5 129 Z " /><path fill="rgb(0,0,0)" stroke="rgb(0,0,0)" stroke-width="1" opacity="0.2627450980392157" d="M 55.5 131 L 54.5 133 L 55.5 131 Z " /><path fill="rgb(0,0,0)" stroke="rgb(0,0,0)" stroke-width="1" opacity="0.2627450980392157" d="M 561.5 133 L 562.5 135 L 561.5 133 Z " /><path fill="rgb(0,0,0)" stroke="rgb(0,0,0)" stroke-width="1" opacity="0.2627450980392157" d="M 53.5 134 L 52.5 136 L 53.5 134 Z " /><path fill="rgb(0,0,0)" stroke="rgb(0,0,0)" stroke-width="1" opacity="0.2627450980392157" d="M 563.5 136 L 564.5 138 L 563.5 136 Z " /><path fill="rgb(0,0,0)" stroke="rgb(0,0,0)" stroke-width="1" opacity="0.2627450980392157" d="M 51.5 137 L 50.5 139 L 51.5 137 Z " /><path fill="rgb(0,0,0)" stroke="rgb(0,0,0)" stroke-width="1" opacity="0.2627450980392157" d="M 49.5 140 L 48.5 142 L 49.5 140 Z " /><path fill="rgb(0,0,0)" stroke="rgb(0,0,0)" stroke-width="1" opacity="0.2627450980392157" d="M 568.5 144 L 569.5 146 L 568.5 144 Z " /><path fill="rgb(0,0,0)" stroke="rgb(0,0,0)" stroke-width="1" opacity="0.2627450980392157" d="M 570.5 147 L 571.5 149 L 570.5 147 Z " /><path fill="rgb(0,0,0)" stroke="rgb(0,0,0)" stroke-width="1" opacity="0.2627450980392157" d="M 44.5 148 L 43.5 150 L 44.5 148 Z " /><path fill="rgb(0,0,0)" stroke="rgb(0,0,0)" stroke-width="1" opacity="0.2627450980392157" d="M 574.5 154 L 575.5 156 L 574.5 154 Z " /><path fill="rgb(0,0,0)" stroke="rgb(0,0,0)" stroke-width="1" opacity="0.2627450980392157" d="M 40.5 155 L 39.5 157 L 40.5 155 Z " /><path fill="rgb(0,0,0)" stroke="rgb(0,0,0)" stroke-width="1" opacity="0.2627450980392157" d="M 578.5 161 L 583 168.5 L 581 167.5 L 578.5 161 Z " /><path fill="rgb(0,0,0)" stroke="rgb(0,0,0)" stroke-width="1" opacity="0.2627450980392157" d="M 35.5 164 L 35 165.5 L 30.5 174 L 31 172.5 L 35.5 164 Z " /><path fill="rgb(0,0,0)" stroke="rgb(0,0,0)" stroke-width="1" opacity="0.2627450980392157" d="M 25.5 184 L 26 185.5 L 24.5 188 L 24 186.5 L 25.5 184 Z " /><path fill="rgb(0,0,0)" stroke="rgb(0,0,0)" stroke-width="1" opacity="0.2627450980392157" d="M 590.5 185 L 592 188.5 L 591 188.5 L 590.5 185 Z " /><path fill="rgb(0,0,0)" stroke="rgb(0,0,0)" stroke-width="1" opacity="0.2627450980392157" d="M 9.5 230 L 10 232.5 L 9 232.5 L 9.5 230 Z " /><path fill="rgb(0,0,0)" stroke="rgb(0,0,0)" stroke-width="1" opacity="0.2627450980392157" d="M 606.5 232 L 607 234.5 L 606 234.5 L 606.5 232 Z " /><path fill="rgb(0,0,0)" stroke="rgb(0,0,0)" stroke-width="1" opacity="0.2627450980392157" d="M 8.5 234 L 9 236.5 L 8 236.5 L 8.5 234 Z " /><path fill="rgb(0,0,0)" stroke="rgb(0,0,0)" stroke-width="1" opacity="0.2627450980392157" d="M 607.5 236 L 608 238.5 L 607 238.5 L 607.5 236 Z " /><path fill="rgb(0,0,0)" stroke="rgb(0,0,0)" stroke-width="1" opacity="0.2627450980392157" d="M 6.5 243 L 7 245.5 L 6 245.5 L 6.5 243 Z " /><path fill="rgb(0,0,0)" stroke="rgb(0,0,0)" stroke-width="1" opacity="0.2627450980392157" d="M 609.5 245 L 610 247.5 L 609 247.5 L 609.5 245 Z " /><path fill="rgb(0,0,0)" stroke="rgb(0,0,0)" stroke-width="1" opacity="0.2627450980392157" d="M 5.5 248 L 6 250.5 L 5 250.5 L 5.5 248 Z " /><path fill="rgb(0,0,0)" stroke="rgb(0,0,0)" stroke-width="1" opacity="0.2627450980392157" d="M 610.5 250 L 611 253.5 L 610 253.5 L 610.5 250 Z " /><path fill="rgb(0,0,0)" stroke="rgb(0,0,0)" stroke-width="1" opacity="0.2627450980392157" d="M 4.5 254 L 5 256.5 L 4 256.5 L 4.5 254 Z " /><path fill="rgb(0,0,0)" stroke="rgb(0,0,0)" stroke-width="1" opacity="0.2627450980392157" d="M 611.5 256 L 612 258.5 L 611 258.5 L 611.5 256 Z " /><path fill="rgb(0,0,0)" stroke="rgb(0,0,0)" stroke-width="1" opacity="0.2627450980392157" d="M 3.5 259 L 4 262.5 L 3 262.5 L 3.5 259 Z " /><path fill="rgb(0,0,0)" stroke="rgb(0,0,0)" stroke-width="1" opacity="0.2627450980392157" d="M 612.5 262 L 613 265.5 L 612 265.5 L 612.5 262 Z " /><path fill="rgb(0,0,0)" stroke="rgb(0,0,0)" stroke-width="1" opacity="0.2627450980392157" d="M 2.5 266 L 3 270.5 L 2 270.5 L 2.5 266 Z " /><path fill="rgb(0,0,0)" stroke="rgb(0,0,0)" stroke-width="1" opacity="0.2627450980392157" d="M 613.5 270 L 614 273.5 L 613 273.5 L 613.5 270 Z " /><path fill="rgb(0,0,0)" stroke="rgb(0,0,0)" stroke-width="1" opacity="0.2627450980392157" d="M 1.5 274 L 2 279.5 L 1 279.5 L 1.5 274 Z " /><path fill="rgb(0,0,0)" stroke="rgb(0,0,0)" stroke-width="1" opacity="0.2627450980392157" d="M 614.5 278 L 615 285.5 L 614 285.5 L 614.5 278 Z " /><path fill="rgb(0,0,0)" stroke="rgb(0,0,0)" stroke-width="1" opacity="0.2627450980392157" d="M 0.5 286 L 1 295.5 L 0 295.5 L 0.5 286 Z " /><path fill="rgb(0,0,0)" stroke="rgb(0,0,0)" stroke-width="1" opacity="0.2627450980392157" d="M 615.5 292 L 616 323.5 L 615 323.5 L 615.5 292 Z " /><path fill="rgb(0,0,0)" stroke="rgb(0,0,0)" stroke-width="1" opacity="0.2627450980392157" d="M 0.5 319 L 1 329.5 L 0 329.5 L 0.5 319 Z " /><path fill="rgb(0,0,0)" stroke="rgb(0,0,0)" stroke-width="1" opacity="0.2627450980392157" d="M 614.5 329 L 615 336.5 L 614 336.5 L 614.5 329 Z " /><path fill="rgb(0,0,0)" stroke="rgb(0,0,0)" stroke-width="1" opacity="0.2627450980392157" d="M 1.5 335 L 2 340.5 L 1 340.5 L 1.5 335 Z " /><path fill="rgb(0,0,0)" stroke="rgb(0,0,0)" stroke-width="1" opacity="0.2627450980392157" d="M 613.5 341 L 614 345.5 L 613 345.5 L 613.5 341 Z " /><path fill="rgb(0,0,0)" stroke="rgb(0,0,0)" stroke-width="1" opacity="0.2627450980392157" d="M 2.5 345 L 3 348.5 L 2 348.5 L 2.5 345 Z " /><path fill="rgb(0,0,0)" stroke="rgb(0,0,0)" stroke-width="1" opacity="0.2627450980392157" d="M 612.5 349 L 613 353.5 L 612 353.5 L 612.5 349 Z " /><path fill="rgb(0,0,0)" stroke="rgb(0,0,0)" stroke-width="1" opacity="0.2627450980392157" d="M 3.5 353 L 4 355.5 L 3 355.5 L 3.5 353 Z " /><path fill="rgb(0,0,0)" stroke="rgb(0,0,0)" stroke-width="1" opacity="0.2627450980392157" d="M 611.5 356 L 612 359.5 L 611 359.5 L 611.5 356 Z " /><path fill="rgb(0,0,0)" stroke="rgb(0,0,0)" stroke-width="1" opacity="0.2627450980392157" d="M 4.5 359 L 5 361.5 L 4 361.5 L 4.5 359 Z " /><path fill="rgb(0,0,0)" stroke="rgb(0,0,0)" stroke-width="1" opacity="0.2627450980392157" d="M 610.5 362 L 611 364.5 L 610 364.5 L 610.5 362 Z " /><path fill="rgb(0,0,0)" stroke="rgb(0,0,0)" stroke-width="1" opacity="0.2627450980392157" d="M 5.5 364 L 6 367.5 L 5 367.5 L 5.5 364 Z " /><path fill="rgb(0,0,0)" stroke="rgb(0,0,0)" stroke-width="1" opacity="0.2627450980392157" d="M 609.5 368 L 610 370.5 L 609 370.5 L 609.5 368 Z " /><path fill="rgb(0,0,0)" stroke="rgb(0,0,0)" stroke-width="1" opacity="0.2627450980392157" d="M 608.5 372 L 609 374.5 L 608 374.5 L 608.5 372 Z " /><path fill="rgb(0,0,0)" stroke="rgb(0,0,0)" stroke-width="1" opacity="0.2627450980392157" d="M 7.5 374 L 8 376.5 L 7 376.5 L 7.5 374 Z " /><path fill="rgb(0,0,0)" stroke="rgb(0,0,0)" stroke-width="1" opacity="0.2627450980392157" d="M 606.5 381 L 607 383.5 L 606 383.5 L 606.5 381 Z " /><path fill="rgb(0,0,0)" stroke="rgb(0,0,0)" stroke-width="1" opacity="0.2627450980392157" d="M 589.5 431 L 590 432.5 L 588.5 435 L 588 433.5 L 589.5 431 Z " /><path fill="rgb(0,0,0)" stroke="rgb(0,0,0)" stroke-width="1" opacity="0.2627450980392157" d="M 26.5 432 L 28 435.5 L 27 435.5 L 26.5 432 Z " /><path fill="rgb(0,0,0)" stroke="rgb(0,0,0)" stroke-width="1" opacity="0.2627450980392157" d="M 37.5 455 L 40 458.5 L 38 457.5 L 37.5 455 Z " /><path fill="rgb(0,0,0)" stroke="rgb(0,0,0)" stroke-width="1" opacity="0.2627450980392157" d="M 577.5 456 L 577 457.5 L 575.5 460 L 576 458.5 L 577.5 456 Z " /><path fill="rgb(0,0,0)" stroke="rgb(0,0,0)" stroke-width="1" opacity="0.2627450980392157" d="M 41.5 462 L 42.5 464 L 41.5 462 Z " /><path fill="rgb(0,0,0)" stroke="rgb(0,0,0)" stroke-width="1" opacity="0.2627450980392157" d="M 573.5 463 L 572.5 465 L 573.5 463 Z " /><path fill="rgb(0,0,0)" stroke="rgb(0,0,0)" stroke-width="1" opacity="0.2627450980392157" d="M 570.5 468 L 569.5 470 L 570.5 468 Z " /><path fill="rgb(0,0,0)" stroke="rgb(0,0,0)" stroke-width="1" opacity="0.2627450980392157" d="M 568.5 471 L 567.5 473 L 568.5 471 Z " /><path fill="rgb(0,0,0)" stroke="rgb(0,0,0)" stroke-width="1" opacity="0.2627450980392157" d="M 47.5 472 L 48.5 474 L 47.5 472 Z " /><path fill="rgb(0,0,0)" stroke="rgb(0,0,0)" stroke-width="1" opacity="0.2627450980392157" d="M 49.5 475 L 50.5 477 L 49.5 475 Z " /><path fill="rgb(0,0,0)" stroke="rgb(0,0,0)" stroke-width="1" opacity="0.2627450980392157" d="M 565.5 476 L 564.5 478 L 565.5 476 Z " /><path fill="rgb(0,0,0)" stroke="rgb(0,0,0)" stroke-width="1" opacity="0.2627450980392157" d="M 51.5 478 L 52.5 480 L 51.5 478 Z " /><path fill="rgb(0,0,0)" stroke="rgb(0,0,0)" stroke-width="1" opacity="0.2627450980392157" d="M 563.5 479 L 562.5 481 L 563.5 479 Z " /><path fill="rgb(0,0,0)" stroke="rgb(0,0,0)" stroke-width="1" opacity="0.2627450980392157" d="M 53.5 481 L 54.5 483 L 53.5 481 Z " /><path fill="rgb(0,0,0)" stroke="rgb(0,0,0)" stroke-width="1" opacity="0.2627450980392157" d="M 561.5 482 L 559.5 485 L 561.5 482 Z " /><path fill="rgb(0,0,0)" stroke="rgb(0,0,0)" stroke-width="1" opacity="0.2627450980392157" d="M 55.5 484 L 57.5 487 L 55.5 484 Z " /><path fill="rgb(0,0,0)" stroke="rgb(0,0,0)" stroke-width="1" opacity="0.2627450980392157" d="M 558.5 486 L 557.5 488 L 558.5 486 Z " /><path fill="rgb(0,0,0)" stroke="rgb(0,0,0)" stroke-width="1" opacity="0.2627450980392157" d="M 58.5 488 L 59.5 490 L 58.5 488 Z " /><path fill="rgb(0,0,0)" stroke="rgb(0,0,0)" stroke-width="1" opacity="0.2627450980392157" d="M 556.5 489 L 555.5 491 L 556.5 489 Z " /><path fill="rgb(0,0,0)" stroke="rgb(0,0,0)" stroke-width="1" opacity="0.2627450980392157" d="M 60.5 491 L 62.5 494 L 60.5 491 Z " /><path fill="rgb(0,0,0)" stroke="rgb(0,0,0)" stroke-width="1" opacity="0.2627450980392157" d="M 553.5 493 L 551.5 496 L 553.5 493 Z " /><path fill="rgb(0,0,0)" stroke="rgb(0,0,0)" stroke-width="1" opacity="0.2627450980392157" d="M 64.5 496 L 66.5 499 L 64.5 496 Z " /><path fill="rgb(0,0,0)" stroke="rgb(0,0,0)" stroke-width="1" opacity="0.2627450980392157" d="M 549.5 498 L 547.5 501 L 549.5 498 Z " /><path fill="rgb(0,0,0)" stroke="rgb(0,0,0)" stroke-width="1" opacity="0.2627450980392157" d="M 67.5 500 L 69.5 503 L 67.5 500 Z " /><path fill="rgb(0,0,0)" stroke="rgb(0,0,0)" stroke-width="1" opacity="0.2627450980392157" d="M 546.5 502 L 542.5 507 L 546.5 502 Z " /><path fill="rgb(0,0,0)" stroke="rgb(0,0,0)" stroke-width="1" opacity="0.2627450980392157" d="M 72.5 506 L 76.5 511 L 72.5 506 Z " /><path fill="rgb(0,0,0)" stroke="rgb(0,0,0)" stroke-width="1" opacity="0.2627450980392157" d="M 540.5 509 L 536.5 514 L 540.5 509 Z " /><path fill="rgb(0,0,0)" stroke="rgb(0,0,0)" stroke-width="1" opacity="0.2627450980392157" d="M 78.5 513 L 89.5 525 L 78.5 513 Z " /><path fill="rgb(0,0,0)" stroke="rgb(0,0,0)" stroke-width="1" opacity="0.2627450980392157" d="M 531.5 519 L 519.5 532 L 531.5 519 Z " /><path fill="rgb(0,0,0)" stroke="rgb(0,0,0)" stroke-width="1" opacity="0.2627450980392157" d="M 91.5 526 L 101.5 537 L 91.5 526 Z " /><path fill="rgb(0,0,0)" stroke="rgb(0,0,0)" stroke-width="1" opacity="0.2627450980392157" d="M 513.5 536 L 509.5 541 L 513.5 536 Z " /><path fill="rgb(0,0,0)" stroke="rgb(0,0,0)" stroke-width="1" opacity="0.2627450980392157" d="M 105.5 539 L 109.5 544 L 105.5 539 Z " /><path fill="rgb(0,0,0)" stroke="rgb(0,0,0)" stroke-width="1" opacity="0.2627450980392157" d="M 506.5 542 L 502.5 547 L 506.5 542 Z " /><path fill="rgb(0,0,0)" stroke="rgb(0,0,0)" stroke-width="1" opacity="0.2627450980392157" d="M 112.5 545 L 114.5 548 L 112.5 545 Z " /><path fill="rgb(0,0,0)" stroke="rgb(0,0,0)" stroke-width="1" opacity="0.2627450980392157" d="M 500.5 547 L 498.5 550 L 500.5 547 Z " /><path fill="rgb(0,0,0)" stroke="rgb(0,0,0)" stroke-width="1" opacity="0.2627450980392157" d="M 117.5 549 L 119.5 552 L 117.5 549 Z " /><path fill="rgb(0,0,0)" stroke="rgb(0,0,0)" stroke-width="1" opacity="0.2627450980392157" d="M 495.5 551 L 493.5 554 L 495.5 551 Z " /><path fill="rgb(0,0,0)" stroke="rgb(0,0,0)" stroke-width="1" opacity="0.2627450980392157" d="M 122.5 553 L 123.5 555 L 122.5 553 Z " /><path fill="rgb(0,0,0)" stroke="rgb(0,0,0)" stroke-width="1" opacity="0.2627450980392157" d="M 491.5 554 L 489.5 557 L 491.5 554 Z " /><path fill="rgb(0,0,0)" stroke="rgb(0,0,0)" stroke-width="1" opacity="0.2627450980392157" d="M 126.5 556 L 127.5 558 L 126.5 556 Z " /><path fill="rgb(0,0,0)" stroke="rgb(0,0,0)" stroke-width="1" opacity="0.2627450980392157" d="M 487.5 557 L 486.5 559 L 487.5 557 Z " /><path fill="rgb(0,0,0)" stroke="rgb(0,0,0)" stroke-width="1" opacity="0.2627450980392157" d="M 129.5 558 L 130.5 560 L 129.5 558 Z " /><path fill="rgb(0,0,0)" stroke="rgb(0,0,0)" stroke-width="1" opacity="0.2627450980392157" d="M 484.5 559 L 482.5 562 L 484.5 559 Z " /><path fill="rgb(0,0,0)" stroke="rgb(0,0,0)" stroke-width="1" opacity="0.2627450980392157" d="M 133.5 561 L 134.5 563 L 133.5 561 Z " /><path fill="rgb(0,0,0)" stroke="rgb(0,0,0)" stroke-width="1" opacity="0.2627450980392157" d="M 480.5 562 L 479.5 564 L 480.5 562 Z " /><path fill="rgb(0,0,0)" stroke="rgb(0,0,0)" stroke-width="1" opacity="0.2627450980392157" d="M 136.5 563 L 137.5 565 L 136.5 563 Z " /><path fill="rgb(0,0,0)" stroke="rgb(0,0,0)" stroke-width="1" opacity="0.2627450980392157" d="M 477.5 564 L 476.5 566 L 477.5 564 Z " /><path fill="rgb(0,0,0)" stroke="rgb(0,0,0)" stroke-width="1" opacity="0.2627450980392157" d="M 472.5 567 L 471.5 569 L 472.5 567 Z " /><path fill="rgb(0,0,0)" stroke="rgb(0,0,0)" stroke-width="1" opacity="0.2627450980392157" d="M 144.5 568 L 145.5 570 L 144.5 568 Z " /><path fill="rgb(0,0,0)" stroke="rgb(0,0,0)" stroke-width="1" opacity="0.2627450980392157" d="M 469.5 569 L 468.5 571 L 469.5 569 Z " /><path fill="rgb(0,0,0)" stroke="rgb(0,0,0)" stroke-width="1" opacity="0.2627450980392157" d="M 147.5 570 L 148.5 572 L 147.5 570 Z " /><path fill="rgb(0,0,0)" stroke="rgb(0,0,0)" stroke-width="1" opacity="0.2627450980392157" d="M 464.5 572 L 463.5 574 L 464.5 572 Z " /><path fill="rgb(0,0,0)" stroke="rgb(0,0,0)" stroke-width="1" opacity="0.2627450980392157" d="M 154.5 574 L 155.5 576 L 154.5 574 Z " /><path fill="rgb(0,0,0)" stroke="rgb(0,0,0)" stroke-width="1" opacity="0.2627450980392157" d="M 459.5 575 L 458.5 577 L 456.5 578 L 457.5 576 L 459.5 575 Z " /><path fill="rgb(0,0,0)" stroke="rgb(0,0,0)" stroke-width="1" opacity="0.2627450980392157" d="M 161.5 578 L 169 582.5 L 167.5 582 Q 161.9 581.2 161.5 578 Z " /><path fill="rgb(0,0,0)" stroke="rgb(0,0,0)" stroke-width="1" opacity="0.2627450980392157" d="M 433.5 588 L 435 588.5 L 431.5 590 L 431.5 589 L 433.5 588 Z " /><path fill="rgb(0,0,0)" stroke="rgb(0,0,0)" stroke-width="1" opacity="0.2627450980392157" d="M 185.5 590 L 189 591.5 L 187.5 592 L 185.5 590 Z " /><path fill="rgb(0,0,0)" stroke="rgb(0,0,0)" stroke-width="1" opacity="0.2627450980392157" d="M 232.5 606 L 235 606.5 L 232.5 607 L 232.5 606 Z " /><path fill="rgb(0,0,0)" stroke="rgb(0,0,0)" stroke-width="1" opacity="0.2627450980392157" d="M 381.5 606 L 384 606.5 L 381.5 607 L 381.5 606 Z " /><path fill="rgb(0,0,0)" stroke="rgb(0,0,0)" stroke-width="1" opacity="0.2627450980392157" d="M 236.5 607 L 239 607.5 L 236.5 608 L 236.5 607 Z " /><path fill="rgb(0,0,0)" stroke="rgb(0,0,0)" stroke-width="1" opacity="0.2627450980392157" d="M 372.5 608 L 375 608.5 L 372.5 609 L 372.5 608 Z " /><path fill="rgb(0,0,0)" stroke="rgb(0,0,0)" stroke-width="1" opacity="0.2627450980392157" d="M 245.5 609 L 248 609.5 L 245.5 610 L 245.5 609 Z " /><path fill="rgb(0,0,0)" stroke="rgb(0,0,0)" stroke-width="1" opacity="0.2627450980392157" d="M 368.5 609 L 371 609.5 L 368.5 610 L 368.5 609 Z " /><path fill="rgb(0,0,0)" stroke="rgb(0,0,0)" stroke-width="1" opacity="0.2627450980392157" d="M 250.5 610 L 254 610.5 L 250.5 611 L 250.5 610 Z " /><path fill="rgb(0,0,0)" stroke="rgb(0,0,0)" stroke-width="1" opacity="0.2627450980392157" d="M 362.5 610 L 365 610.5 L 362.5 611 L 362.5 610 Z " /><path fill="rgb(0,0,0)" stroke="rgb(0,0,0)" stroke-width="1" opacity="0.2627450980392157" d="M 256.5 611 L 259 611.5 L 256.5 612 L 256.5 611 Z " /><path fill="rgb(0,0,0)" stroke="rgb(0,0,0)" stroke-width="1" opacity="0.2627450980392157" d="M 356.5 611 L 360 611.5 L 356.5 612 L 356.5 611 Z " /><path fill="rgb(0,0,0)" stroke="rgb(0,0,0)" stroke-width="1" opacity="0.2627450980392157" d="M 262.5 612 L 266 612.5 L 262.5 613 L 262.5 612 Z " /><path fill="rgb(0,0,0)" stroke="rgb(0,0,0)" stroke-width="1" opacity="0.2627450980392157" d="M 349.5 612 L 354 612.5 L 349.5 613 L 349.5 612 Z " /><path fill="rgb(0,0,0)" stroke="rgb(0,0,0)" stroke-width="1" opacity="0.2627450980392157" d="M 270.5 613 L 274 613.5 L 270.5 614 L 270.5 613 Z " /><path fill="rgb(0,0,0)" stroke="rgb(0,0,0)" stroke-width="1" opacity="0.2627450980392157" d="M 341.5 613 L 346 613.5 L 341.5 614 L 341.5 613 Z " /><path fill="rgb(0,0,0)" stroke="rgb(0,0,0)" stroke-width="1" opacity="0.2627450980392157" d="M 278.5 614 L 286 614.5 L 278.5 615 L 278.5 614 Z " /><path fill="rgb(0,0,0)" stroke="rgb(0,0,0)" stroke-width="1" opacity="0.2627450980392157" d="M 329.5 614 L 337 614.5 L 329.5 615 L 329.5 614 Z " /><path fill="rgb(0,0,0)" stroke="rgb(0,0,0)" stroke-width="1" opacity="0.2627450980392157" d="M 292.5 615 L 324 615.5 L 292.5 616 L 292.5 615 Z " /><path fill="rgb(250,222,155)" stroke="rgb(250,222,155)" stroke-width="1" opacity="1" d="M 440.5 79 L 441 81.5 L 440 81.5 L 440.5 79 Z " /><path fill="rgb(250,222,155)" stroke="rgb(250,222,155)" stroke-width="1" opacity="1" d="M 388.5 80 L 417 80.5 L 388.5 81 L 388.5 80 Z " /><path fill="rgb(250,222,155)" stroke="rgb(250,222,155)" stroke-width="1" opacity="1" d="M 440.5 92 L 441 94.5 L 440 94.5 L 440.5 92 Z " /><path fill="rgb(250,222,155)" stroke="rgb(250,222,155)" stroke-width="1" opacity="1" d="M 276.5 109 L 280 109.5 L 276.5 110 L 276.5 109 Z " /><path fill="rgb(250,222,155)" stroke="rgb(250,222,155)" stroke-width="1" opacity="1" d="M 425.5 121 L 423.5 124 L 425.5 121 Z " /><path fill="rgb(250,222,155)" stroke="rgb(250,222,155)" stroke-width="1" opacity="1" d="M 387.5 130 L 388.5 132 L 387.5 130 Z " /><path fill="rgb(250,222,155)" stroke="rgb(250,222,155)" stroke-width="1" opacity="1" d="M 390.5 132 L 394 132.5 L 390.5 133 L 390.5 132 Z " /><path fill="rgb(250,222,155)" stroke="rgb(250,222,155)" stroke-width="1" opacity="1" d="M 219.5 135 L 217 138.5 L 212 147.5 L 207.5 164 Q 197.6 152.9 182.5 147 L 171.5 144 L 157.5 144 Q 132.9 148.9 117 162.5 Q 116.3 164.8 118.5 164 Q 129.8 176.1 145 183 Q 146.1 185.7 143.5 185 Q 129.5 191.5 120 202.5 Q 108.4 215.3 105 235 L 101.5 234 L 99.5 234 L 97.5 235 L 94.5 234 L 86.5 235 L 83.5 234 L 81.5 235 L 78.5 234 L 70.5 235 L 67.5 234 L 65.5 235 L 62.5 234 L 54.5 235 L 51.5 234 L 49.5 235 L 46.5 234 L 38.5 235 L 35 233.5 Q 40.9 208.4 51 187.5 Q 64.3 159.3 82.5 136 L 218.5 136 L 219.5 135 Z " /><path fill="rgb(250,222,155)" stroke="rgb(250,222,155)" stroke-width="1" opacity="1" d="M 451.5 135 Q 461.4 156.6 478.5 171 Q 492.5 183.5 511.5 191 L 534.5 197 L 557.5 198 L 558.5 197 L 569 197 L 581 234.5 L 579.5 234 L 577.5 235 L 574.5 234 L 566.5 235 L 563.5 234 L 561.5 235 L 558.5 234 L 556 233.5 L 556 219.5 Q 554.4 215.1 547.5 216 L 544 219.5 L 543.5 235 L 541.5 234 Q 540 236.5 534.5 235 L 531.5 234 L 529.5 235 L 526.5 234 L 518.5 235 L 515.5 234 L 513.5 235 L 511 234.5 L 517 216.5 L 517 211.5 L 514.5 208 L 510.5 207 L 506 209.5 L 497.5 235 L 494.5 234 L 486.5 235 L 483.5 234 L 481.5 235 L 478.5 234 L 470.5 235 L 467.5 234 L 465.5 235 L 462.5 234 L 454.5 235 L 451.5 234 L 449.5 235 L 446.5 234 L 438.5 235 L 435.5 234 L 433.5 235 L 430.5 234 L 422.5 235 L 419.5 234 L 417.5 235 L 414.5 234 L 406.5 235 L 403.5 234 L 401.5 235 L 398.5 234 L 390.5 235 L 387.5 234 L 385.5 235 L 382.5 234 L 374.5 235 L 371.5 234 L 369.5 235 L 366.5 234 L 358.5 235 L 355.5 234 L 353.5 235 L 350.5 234 L 342.5 235 L 339.5 234 L 337.5 235 L 334 233.5 Q 325.3 215.7 312 202.5 L 317.5 202 L 318.5 203 L 364.5 208 L 364 206.5 L 364 201.5 L 358 182.5 Q 351.8 169.7 341.5 161 Q 319.3 140.7 278.5 139 Q 276.8 141.8 270.5 140 L 271 138.5 L 272.5 136 L 450.5 136 L 451.5 135 Z M 429 143 L 405 156 L 401 162 L 405 167 L 411 167 L 433 155 L 437 150 L 436 146 Q 434 142 429 143 Z M 451 169 L 436 182 L 427 191 L 427 197 L 433 200 L 438 198 L 458 178 L 458 173 Q 457 168 451 169 Z M 478 191 L 476 192 L 459 219 L 460 224 L 464 226 L 469 225 L 472 222 L 484 202 L 485 196 Q 483 191 478 191 Z " /><path fill="rgb(250,222,155)" stroke="rgb(250,222,155)" stroke-width="1" opacity="1" d="M 246.5 229 L 251 234.5 L 247 235 L 246.5 229 Z " /><path fill="rgb(250,222,155)" stroke="rgb(250,222,155)" stroke-width="1" opacity="1" d="M 325.5 353 L 322.5 357 L 325.5 353 Z " /><path fill="rgb(250,222,155)" stroke="rgb(250,222,155)" stroke-width="1" opacity="1" d="M 339.5 369 L 338.5 371 L 339.5 369 Z " /><path fill="rgb(253,193,132)" stroke="rgb(253,193,132)" stroke-width="1" opacity="1" d="M 389.5 52 L 390.5 54 L 389.5 52 Z " /><path fill="rgb(253,193,132)" stroke="rgb(253,193,132)" stroke-width="1" opacity="1" d="M 440.5 82 L 441 91.5 L 440 91.5 L 440.5 82 Z " /><path fill="rgb(253,193,132)" stroke="rgb(253,193,132)" stroke-width="1" opacity="1" d="M 386.5 92 L 417 92.5 L 386.5 93 L 386.5 92 Z " /><path fill="rgb(253,193,132)" stroke="rgb(253,193,132)" stroke-width="1" opacity="1" d="M 109.5 105 L 105.5 110 L 109.5 105 Z " /><path fill="rgb(253,193,132)" stroke="rgb(253,193,132)" stroke-width="1" opacity="1" d="M 278.5 139 L 281 139.5 L 278.5 140 L 278.5 139 Z " /><path fill="rgb(253,193,132)" stroke="rgb(253,193,132)" stroke-width="1" opacity="1" d="M 282.5 139 L 287 139.5 L 282.5 140 L 282.5 139 Z " /><path fill="rgb(253,193,132)" stroke="rgb(253,193,132)" stroke-width="1" opacity="1" d="M 434.5 144 L 435.5 146 L 434.5 144 Z " /><path fill="rgb(253,193,132)" stroke="rgb(253,193,132)" stroke-width="1" opacity="1" d="M 436.5 147 L 437 149.5 L 436 149.5 L 436.5 147 Z " /><path fill="rgb(253,193,132)" stroke="rgb(253,193,132)" stroke-width="1" opacity="1" d="M 468.5 160 L 470.5 163 L 468.5 160 Z " /><path fill="rgb(253,193,132)" stroke="rgb(253,193,132)" stroke-width="1" opacity="1" d="M 347.5 167 L 348.5 169 L 347.5 167 Z " /><path fill="rgb(253,193,132)" stroke="rgb(253,193,132)" stroke-width="1" opacity="1" d="M 475.5 167 L 478.5 171 L 475.5 167 Z " /><path fill="rgb(253,193,132)" stroke="rgb(253,193,132)" stroke-width="1" opacity="1" d="M 448.5 170 L 447.5 172 L 448.5 170 Z " /><path fill="rgb(253,193,132)" stroke="rgb(253,193,132)" stroke-width="1" opacity="1" d="M 486.5 176 L 487.5 178 L 486.5 176 Z " /><path fill="rgb(253,193,132)" stroke="rgb(253,193,132)" stroke-width="1" opacity="1" d="M 435.5 182 L 432.5 186 L 435.5 182 Z " /><path fill="rgb(253,193,132)" stroke="rgb(253,193,132)" stroke-width="1" opacity="1" d="M 444.5 190 L 437.5 198 L 444.5 190 Z " /><path fill="rgb(253,193,132)" stroke="rgb(253,193,132)" stroke-width="1" opacity="1" d="M 477.5 191 L 480 191.5 L 477.5 192 L 477.5 191 Z " /><path fill="rgb(253,193,132)" stroke="rgb(253,193,132)" stroke-width="1" opacity="1" d="M 475.5 192 L 473.5 195 L 475.5 192 Z " /><path fill="rgb(253,193,132)" stroke="rgb(253,193,132)" stroke-width="1" opacity="1" d="M 127.5 195 L 124.5 199 L 127.5 195 Z " /><path fill="rgb(253,193,132)" stroke="rgb(253,193,132)" stroke-width="1" opacity="1" d="M 484.5 195 L 485 198.5 L 484 198.5 L 484.5 195 Z " /><path fill="rgb(253,193,132)" stroke="rgb(253,193,132)" stroke-width="1" opacity="1" d="M 528.5 195 L 531 195.5 L 528.5 196 L 528.5 195 Z " /><path fill="rgb(253,193,132)" stroke="rgb(253,193,132)" stroke-width="1" opacity="1" d="M 534.5 196 L 537 196.5 L 534.5 197 L 534.5 196 Z " /><path fill="rgb(253,193,132)" stroke="rgb(253,193,132)" stroke-width="1" opacity="1" d="M 565.5 196 L 568 196.5 L 565.5 197 L 565.5 196 Z " /><path fill="rgb(253,193,132)" stroke="rgb(253,193,132)" stroke-width="1" opacity="1" d="M 543.5 197 L 558 197.5 L 543.5 198 L 543.5 197 Z " /><path fill="rgb(253,193,132)" stroke="rgb(253,193,132)" stroke-width="1" opacity="1" d="M 122.5 200 L 120.5 203 L 122.5 200 Z " /><path fill="rgb(253,193,132)" stroke="rgb(253,193,132)" stroke-width="1" opacity="1" d="M 311.5 201 L 314 204.5 L 311 202.5 L 311.5 201 Z " /><path fill="rgb(253,193,132)" stroke="rgb(253,193,132)" stroke-width="1" opacity="1" d="M 483.5 201 L 482.5 203 L 483.5 201 Z " /><path fill="rgb(253,193,132)" stroke="rgb(253,193,132)" stroke-width="1" opacity="1" d="M 342.5 205 L 345 205.5 L 342.5 206 L 342.5 205 Z " /><path fill="rgb(253,193,132)" stroke="rgb(253,193,132)" stroke-width="1" opacity="1" d="M 350.5 206 L 353 206.5 L 350.5 207 L 350.5 206 Z " /><path fill="rgb(253,193,132)" stroke="rgb(253,193,132)" stroke-width="1" opacity="1" d="M 510.5 207 L 513 207.5 L 510.5 208 L 510.5 207 Z " /><path fill="rgb(253,193,132)" stroke="rgb(253,193,132)" stroke-width="1" opacity="1" d="M 507.5 208 L 506.5 210 L 507.5 208 Z " /><path fill="rgb(253,193,132)" stroke="rgb(253,193,132)" stroke-width="1" opacity="1" d="M 514.5 208 L 515.5 210 L 514.5 208 Z " /><path fill="rgb(253,193,132)" stroke="rgb(253,193,132)" stroke-width="1" opacity="1" d="M 547.5 216 L 549 216.5 L 544.5 220 L 547.5 216 Z " /><path fill="rgb(253,193,132)" stroke="rgb(253,193,132)" stroke-width="1" opacity="1" d="M 553.5 217 L 556 220.5 L 555 220.5 L 553.5 217 Z " /><path fill="rgb(253,193,132)" stroke="rgb(253,193,132)" stroke-width="1" opacity="1" d="M 460.5 223 L 461.5 225 L 460.5 223 Z " /><path fill="rgb(253,193,132)" stroke="rgb(253,193,132)" stroke-width="1" opacity="1" d="M 328.5 224 L 329.5 226 L 328.5 224 Z " /><path fill="rgb(253,193,132)" stroke="rgb(253,193,132)" stroke-width="1" opacity="1" d="M 249.5 232 Q 264.6 250.4 287.5 261 Q 314.3 274 348 279 L 342 251.5 L 334 234.5 L 338.5 234 L 340.5 235 L 342.5 235 L 350.5 234 L 354.5 234 L 356.5 235 L 358.5 235 L 366.5 234 L 370.5 234 L 372.5 235 L 374.5 235 L 382.5 234 L 386.5 234 L 388.5 235 L 390.5 235 L 398.5 234 L 402.5 234 L 404.5 235 L 406.5 235 L 414.5 234 L 418.5 234 L 420.5 235 L 422.5 235 L 430.5 234 L 434.5 234 L 436.5 235 L 438.5 235 L 446.5 234 L 450.5 234 L 452.5 235 L 454.5 235 L 462.5 234 L 466.5 234 L 468.5 235 L 470.5 235 L 478.5 234 L 482.5 234 L 484.5 235 L 486.5 235 L 494.5 234 L 498 235.5 L 499 242 Q 501.1 243.6 506.5 243 L 512 234.5 L 511.5 233 Q 513 236.5 514.5 234 L 516.5 235 L 518.5 235 L 526.5 234 L 530.5 234 L 532.5 235 L 534.5 235 L 542.5 234 L 544 235.5 L 544 247.5 L 546.5 251 L 552.5 252 L 555 251 L 557 243.5 L 556 242.5 L 556 234 L 559.5 235 L 562.5 234 L 564.5 235 L 566.5 235 L 574.5 234 L 578.5 234 L 582 235 L 588 264.5 L 590 289 L 585.5 290 L 584.5 288 L 580.5 290 L 577.5 289 L 573.5 289 L 569.5 290 L 568.5 288 L 564.5 290 L 561.5 289 L 557.5 289 L 553.5 290 L 552.5 288 L 548.5 290 L 545.5 289 L 541.5 289 L 537.5 290 L 536.5 288 L 532.5 290 L 529.5 289 L 525.5 289 L 521.5 290 L 520.5 288 L 516.5 290 L 513.5 289 L 509.5 289 L 505.5 290 L 504.5 288 L 500.5 290 L 497.5 289 L 493.5 289 L 489.5 290 L 488.5 288 L 484.5 290 L 481.5 289 L 477.5 289 L 473.5 290 L 472.5 288 L 468.5 290 L 465.5 289 L 461.5 289 L 457.5 290 L 456.5 288 L 452.5 290 L 449.5 289 L 445.5 289 L 441.5 290 L 440.5 288 L 436.5 290 L 433.5 289 L 429.5 289 L 425.5 290 L 424.5 288 L 420.5 290 L 417.5 289 L 413.5 289 L 409.5 290 L 408.5 288 L 404.5 290 L 401.5 289 L 397.5 289 L 393.5 290 L 392.5 288 L 388.5 290 L 385.5 289 L 381.5 289 L 377.5 290 L 376.5 288 L 372.5 290 L 369.5 289 L 365.5 289 L 361.5 290 L 360.5 288 L 356.5 290 L 353.5 289 L 349.5 289 L 345.5 290 L 344.5 288 L 340.5 290 L 337.5 289 L 333.5 289 L 329.5 290 L 328.5 288 L 324.5 290 L 321.5 289 L 317.5 289 L 313.5 290 L 312.5 288 L 308.5 290 L 305.5 289 L 301.5 289 L 297.5 290 L 296.5 288 L 292.5 290 L 289.5 289 L 285.5 289 L 281.5 290 L 280.5 288 L 276.5 290 L 273.5 289 L 269.5 289 L 265.5 290 L 264.5 288 L 262.5 290 L 260 289.5 L 247 235 L 251 234.5 L 249.5 232 Z " /><path fill="rgb(253,193,132)" stroke="rgb(253,193,132)" stroke-width="1" opacity="1" d="M 34 234 L 36.5 235 L 38.5 235 L 46.5 234 L 50.5 234 L 52.5 235 L 54.5 235 L 62.5 234 L 66.5 234 L 68.5 235 L 70.5 235 L 78.5 234 L 82.5 234 L 84.5 235 L 86.5 235 L 94.5 234 L 98.5 234 L 100.5 235 L 102.5 235 Q 105.8 233.9 105 236.5 L 103 241.5 L 102 255.5 L 101 256.5 L 101 290 L 97.5 289 L 93.5 289 L 89.5 290 L 88.5 288 L 84.5 290 L 81.5 289 L 77.5 289 L 73.5 290 L 72.5 288 L 68.5 290 L 65.5 289 L 61.5 289 L 57.5 290 L 56.5 288 L 52.5 290 L 49.5 289 L 45.5 289 L 41.5 290 L 40.5 288 L 36.5 290 L 33.5 289 L 29.5 289 L 25.5 290 L 26 288.5 L 26 277.5 L 27 276.5 L 28 262.5 L 34 234 Z " /><path fill="rgb(253,193,132)" stroke="rgb(253,193,132)" stroke-width="1" opacity="1" d="M 218.5 240 L 227 289 L 224.5 290 L 221.5 289 L 217.5 290 L 216.5 288 L 212.5 290 L 209.5 289 L 205.5 289 Q 203.3 289.8 204 287.5 L 208 280.5 L 215 261.5 L 218.5 240 Z " /><path fill="rgb(253,193,132)" stroke="rgb(253,193,132)" stroke-width="1" opacity="1" d="M 150.5 256 L 151 262.5 L 150 263.5 L 150 278.5 L 151 279.5 L 151 289.5 L 148.5 290 L 145.5 289 L 141.5 289 L 137.5 290 L 136.5 288 L 132.5 290 L 129.5 289 L 125.5 289 L 121.5 290 L 120.5 288 L 118 289.5 L 150.5 256 Z " /><path fill="rgb(0,0,0)" stroke="rgb(0,0,0)" stroke-width="1" opacity="0" d="M 0 0 L 286 0.5 L 259.5 3 L 230.5 9 L 201.5 18 L 175.5 29 Q 123.7 54.2 86 93.5 Q 47.8 132.8 24 186.5 L 18 201.5 L 8 234.5 L 3 259.5 L 0.5 286 L 0 0 Z " /><path fill="rgb(0,0,0)" stroke="rgb(0,0,0)" stroke-width="1" opacity="0" d="M 330.5 0 L 616 0 L 616 291.5 L 615 291.5 L 615 278.5 L 614 277.5 L 613 262.5 L 608 236.5 L 596 197.5 L 587 176.5 Q 559 118.5 513.5 78 Q 476.2 44.3 426.5 23 Q 403.3 13.2 376.5 7 L 348.5 2 L 330.5 1 L 330.5 0 Z " /><path fill="rgb(0,0,0)" stroke="rgb(0,0,0)" stroke-width="1" opacity="0" d="M 615.5 324 L 616 616 L 324 615.5 L 353.5 613 L 383.5 607 L 415.5 597 L 432.5 590 Q 491 563.5 532 519.5 Q 569.9 479.9 593 425.5 L 603 397.5 L 610 370.5 L 610 365.5 L 613 353.5 L 613 346.5 L 614 345.5 L 615.5 324 Z " /><path fill="rgb(0,0,0)" stroke="rgb(0,0,0)" stroke-width="1" opacity="0" d="M 0.5 330 L 2 348.5 L 7 376.5 Q 14.2 407.3 26 433.5 Q 54.1 494.9 101.5 537 Q 138.4 570.6 187.5 592 L 236.5 608 L 262.5 613 L 292 615.5 L 0 616 L 0.5 330 Z " /><path fill="rgb(91,189,39)" stroke="rgb(91,189,39)" stroke-width="1" opacity="1" d="M 124.5 91 L 123.5 93 L 124.5 91 Z " /><path fill="rgb(91,189,39)" stroke="rgb(91,189,39)" stroke-width="1" opacity="1" d="M 116.5 98 L 113.5 102 L 116.5 98 Z " /><path fill="rgb(91,189,39)" stroke="rgb(91,189,39)" stroke-width="1" opacity="1" d="M 266.5 110 L 280 110.5 L 277 122.5 L 270 140.5 L 271.5 140 L 293.5 140 L 310.5 144 L 328.5 152 L 345 164 L 355 177.5 L 359 185.5 Q 363.5 195.4 364 208 L 361.5 207 L 354.5 207 L 353.5 206 L 346.5 206 L 345.5 205 L 338.5 205 L 337.5 204 L 310.5 201 L 318 209.5 Q 341.2 236.6 348 279 L 314.5 271 L 290.5 262 Q 264.3 250.3 247 229.5 L 245.5 227 Q 243.3 227.8 244 225.5 L 219.5 196 L 218 196.5 L 218 205.5 L 219 206.5 L 219 226.5 L 218 227.5 L 217 250.5 L 210 274.5 Q 192.4 314.9 168.5 349 Q 165.9 349.8 167 346.5 L 160 328.5 L 154 305.5 L 154 300.5 L 152 293.5 L 152 285.5 L 151 284.5 L 150.5 256 L 103 302.5 L 102 283.5 L 101 282.5 L 101 261.5 L 102 260.5 L 102 250.5 L 103 249.5 L 104 238.5 L 110 219.5 Q 117.3 203.3 130.5 193 L 145 185 L 143.5 182 Q 128.1 174.4 117 162.5 Q 129.4 152.9 145.5 147 L 159.5 144 L 168.5 144 Q 194.5 148.5 208.5 165 Q 210.5 141.5 224.5 130 Q 234.8 120.8 248.5 115 L 266.5 110 Z " /><path fill="rgb(91,189,39)" stroke="rgb(91,189,39)" stroke-width="1" opacity="1" d="M 100.5 114 L 98.5 117 L 100.5 114 Z " /><path fill="rgb(91,189,39)" stroke="rgb(91,189,39)" stroke-width="1" opacity="1" d="M 92.5 123 L 91.5 125 L 92.5 123 Z " /><path fill="rgb(91,189,39)" stroke="rgb(91,189,39)" stroke-width="1" opacity="1" d="M 195.5 431 L 194.5 433 L 195.5 431 Z " /><path fill="rgb(91,189,39)" stroke="rgb(91,189,39)" stroke-width="1" opacity="1" d="M 178.5 442 L 177.5 444 L 178.5 442 Z " /><path fill="rgb(91,189,39)" stroke="rgb(91,189,39)" stroke-width="1" opacity="1" d="M 175.5 444 L 174.5 446 L 175.5 444 Z " /><path fill="rgb(91,189,39)" stroke="rgb(91,189,39)" stroke-width="1" opacity="1" d="M 172.5 446 L 170.5 449 L 172.5 446 Z " /><path fill="rgb(91,189,39)" stroke="rgb(91,189,39)" stroke-width="1" opacity="1" d="M 447.5 448 L 448.5 450 L 447.5 448 Z " /><path fill="rgb(91,189,39)" stroke="rgb(91,189,39)" stroke-width="1" opacity="1" d="M 167.5 450 L 166.5 452 L 167.5 450 Z " /><path fill="rgb(91,189,39)" stroke="rgb(91,189,39)" stroke-width="1" opacity="1" d="M 451.5 451 L 452.5 453 L 451.5 451 Z " /><path fill="rgb(91,189,39)" stroke="rgb(91,189,39)" stroke-width="1" opacity="1" d="M 163.5 453 L 160.5 457 L 163.5 453 Z " /><path fill="rgb(91,189,39)" stroke="rgb(91,189,39)" stroke-width="1" opacity="1" d="M 457.5 456 L 459.5 459 L 457.5 456 Z " /><path fill="rgb(91,189,39)" stroke="rgb(91,189,39)" stroke-width="1" opacity="1" d="M 156.5 459 L 152.5 464 L 156.5 459 Z " /><path fill="rgb(91,189,39)" stroke="rgb(91,189,39)" stroke-width="1" opacity="1" d="M 463.5 461 L 468.5 467 L 463.5 461 Z " /><path fill="rgb(91,189,39)" stroke="rgb(91,189,39)" stroke-width="1" opacity="1" d="M 145.5 469 L 137.5 478 L 145.5 469 Z " /><path fill="rgb(91,189,39)" stroke="rgb(91,189,39)" stroke-width="1" opacity="1" d="M 482.5 480 L 485.5 484 L 482.5 480 Z " /><path fill="rgb(91,189,39)" stroke="rgb(91,189,39)" stroke-width="1" opacity="1" d="M 133.5 482 L 128.5 488 L 133.5 482 Z " /><path fill="rgb(91,189,39)" stroke="rgb(91,189,39)" stroke-width="1" opacity="1" d="M 490.5 489 L 492.5 492 L 490.5 489 Z " /><path fill="rgb(91,189,39)" stroke="rgb(91,189,39)" stroke-width="1" opacity="1" d="M 126.5 490 L 123.5 494 L 126.5 490 Z " /><path fill="rgb(91,189,39)" stroke="rgb(91,189,39)" stroke-width="1" opacity="1" d="M 122.5 495 L 119.5 499 L 122.5 495 Z " /><path fill="rgb(91,189,39)" stroke="rgb(91,189,39)" stroke-width="1" opacity="1" d="M 495.5 495 L 496.5 497 L 495.5 495 Z " /><path fill="rgb(91,189,39)" stroke="rgb(91,189,39)" stroke-width="1" opacity="1" d="M 118.5 500 L 116.5 503 L 118.5 500 Z " /><path fill="rgb(91,189,39)" stroke="rgb(91,189,39)" stroke-width="1" opacity="1" d="M 499.5 500 L 500.5 502 L 499.5 500 Z " /><path fill="rgb(91,189,39)" stroke="rgb(91,189,39)" stroke-width="1" opacity="1" d="M 115.5 504 L 113.5 507 L 115.5 504 Z " /><path fill="rgb(91,189,39)" stroke="rgb(91,189,39)" stroke-width="1" opacity="1" d="M 502.5 504 L 503.5 506 L 502.5 504 Z " /><path fill="rgb(91,189,39)" stroke="rgb(91,189,39)" stroke-width="1" opacity="1" d="M 112.5 508 L 110.5 511 L 112.5 508 Z " /><path fill="rgb(91,189,39)" stroke="rgb(91,189,39)" stroke-width="1" opacity="1" d="M 115.5 515 L 117.5 518 L 115.5 515 Z " /><path fill="rgb(91,189,39)" stroke="rgb(91,189,39)" stroke-width="1" opacity="1" d="M 124.5 523 L 125.5 525 L 124.5 523 Z " /><path fill="rgb(91,189,39)" stroke="rgb(91,189,39)" stroke-width="1" opacity="1" d="M 134.5 531 L 135.5 533 L 134.5 531 Z " /><path fill="rgb(91,189,39)" stroke="rgb(91,189,39)" stroke-width="1" opacity="1" d="M 145.5 539 L 146.5 541 L 145.5 539 Z " /><path fill="rgb(254,161,114)" stroke="rgb(254,161,114)" stroke-width="1" opacity="1" d="M 111.5 103 L 110.5 105 L 111.5 103 Z " /><path fill="rgb(254,161,114)" stroke="rgb(254,161,114)" stroke-width="1" opacity="1" d="M 104.5 110 L 102.5 113 L 104.5 110 Z " /><path fill="rgb(254,161,114)" stroke="rgb(254,161,114)" stroke-width="1" opacity="1" d="M 402.5 164 L 403.5 166 L 402.5 164 Z " /><path fill="rgb(254,161,114)" stroke="rgb(254,161,114)" stroke-width="1" opacity="1" d="M 446.5 172 L 445.5 174 L 446.5 172 Z " /><path fill="rgb(254,161,114)" stroke="rgb(254,161,114)" stroke-width="1" opacity="1" d="M 449.5 185 L 445.5 190 L 449.5 185 Z " /><path fill="rgb(254,161,114)" stroke="rgb(254,161,114)" stroke-width="1" opacity="1" d="M 431.5 186 L 428.5 190 L 431.5 186 Z " /><path fill="rgb(254,161,114)" stroke="rgb(254,161,114)" stroke-width="1" opacity="1" d="M 459.5 218 L 460 220.5 L 459 220.5 L 459.5 218 Z " /><path fill="rgb(254,161,114)" stroke="rgb(254,161,114)" stroke-width="1" opacity="1" d="M 470.5 222 L 468.5 225 L 470.5 222 Z " /><path fill="rgb(254,161,114)" stroke="rgb(254,161,114)" stroke-width="1" opacity="1" d="M 464.5 225 L 467 225.5 L 464.5 226 L 464.5 225 Z " /><path fill="rgb(254,161,114)" stroke="rgb(254,161,114)" stroke-width="1" opacity="1" d="M 544.5 237 L 545 247.5 L 544 247.5 L 544.5 237 Z " /><path fill="rgb(254,161,114)" stroke="rgb(254,161,114)" stroke-width="1" opacity="1" d="M 556.5 243 L 557 246.5 L 556 246.5 L 556.5 243 Z " /><path fill="rgb(254,161,114)" stroke="rgb(254,161,114)" stroke-width="1" opacity="1" d="M 545.5 249 L 546.5 251 L 545.5 249 Z " /><path fill="rgb(254,161,114)" stroke="rgb(254,161,114)" stroke-width="1" opacity="1" d="M 147.5 259 L 131.5 276 L 147.5 259 Z " /><path fill="rgb(254,161,114)" stroke="rgb(254,161,114)" stroke-width="1" opacity="1" d="M 150.5 263 L 151 278.5 L 150 278.5 L 150.5 263 Z " /><path fill="rgb(254,161,114)" stroke="rgb(254,161,114)" stroke-width="1" opacity="1" d="M 25.5 286 L 26 289 L 30.5 290 L 33.5 289 L 35.5 288 L 35.5 290 L 37.5 289 L 38.5 290 L 41 288.5 L 41.5 290 L 45.5 289 L 49.5 289 L 51.5 288 L 51.5 290 L 53.5 289 L 54.5 290 L 57 288.5 L 57.5 290 L 61.5 289 L 65.5 289 L 67.5 288 L 67.5 290 L 69.5 289 L 70.5 290 L 73 288.5 L 73.5 290 L 77.5 289 L 81.5 289 L 83.5 288 L 83.5 290 L 85.5 289 L 86.5 290 L 89 288.5 L 89.5 290 L 93.5 289 L 97.5 289 L 99.5 288 L 99.5 290 Q 102.5 290.9 101 286.5 L 102 286.5 Q 100.5 297 103.5 303 L 111 297 Q 109.9 294.3 112.5 295 L 120.5 288 L 121.5 290 L 125.5 289 L 129.5 289 L 131.5 288 L 131.5 290 L 133.5 289 L 134.5 290 L 137 288.5 L 137.5 290 L 141.5 289 L 145.5 289 L 147.5 288 L 147.5 290 L 149.5 289 L 151 289.5 L 151.5 287 L 156 315.5 L 165 343.5 L 168.5 350 L 193 309.5 L 203 289 L 206.5 290 L 209.5 289 L 211.5 288 L 211.5 290 L 213.5 289 L 214.5 290 L 217 288.5 L 217.5 290 L 221.5 289 L 225.5 289 L 228 290.5 L 230 310.5 L 231 311.5 L 231 319.5 L 232 320.5 L 232 330.5 L 233 331.5 L 234 369.5 Q 232.2 373.8 230.5 371 L 228.5 370 L 227.5 372 Q 226 368.5 224.5 371 L 222.5 372 L 222.5 370 Q 220.3 369.3 221 371.5 L 220 371.5 L 219.5 370 L 215.5 372 L 214.5 371 L 212.5 370 L 211.5 372 Q 210 368.5 208.5 371 L 206.5 372 L 206.5 370 Q 204.3 369.3 205 371.5 L 204 371.5 L 203.5 370 L 199.5 372 L 198.5 371 L 196.5 370 L 195.5 372 Q 194 368.5 192.5 371 L 190.5 372 L 190.5 370 Q 188.3 369.3 189 371.5 L 188 371.5 L 187.5 370 L 183.5 372 L 182.5 371 L 180.5 370 L 179.5 372 Q 178 368.5 176.5 371 L 174.5 372 L 174.5 370 Q 172.3 369.3 173 371.5 L 172 371.5 L 171.5 370 L 167.5 372 L 166.5 371 L 164.5 370 L 163.5 372 Q 162 368.5 160.5 371 L 158.5 372 L 158.5 370 Q 156.3 369.3 157 371.5 L 156 371.5 L 155.5 370 L 151.5 372 L 150.5 371 L 148.5 370 L 147.5 372 Q 146 368.5 144.5 371 L 142.5 372 L 142.5 370 Q 140.3 369.3 141 371.5 L 140 371.5 L 139.5 370 L 135.5 372 L 134.5 371 L 132.5 370 L 131.5 372 Q 130 368.5 128.5 371 L 126.5 372 L 126.5 370 Q 124.3 369.3 125 371.5 L 124 371.5 L 123.5 370 L 119.5 372 L 118.5 371 L 116.5 370 L 115.5 372 Q 114 368.5 112.5 371 L 110.5 372 L 110.5 370 Q 108.3 369.3 109 371.5 L 108 371.5 L 107.5 370 L 103.5 372 L 102.5 371 L 100.5 370 L 99.5 372 Q 98 368.5 96.5 371 L 94.5 372 L 94.5 370 Q 92.3 369.3 93 371.5 L 92 371.5 L 91.5 370 L 87.5 372 L 86.5 371 L 84.5 370 L 83.5 372 Q 82 368.5 80.5 371 L 78.5 372 L 78.5 370 Q 76.3 369.3 77 371.5 L 76 371.5 L 75.5 370 L 71.5 372 L 70.5 371 L 68.5 370 L 67.5 372 Q 66 368.5 64.5 371 L 62.5 372 L 62.5 370 Q 60.3 369.3 61 371.5 L 60 371.5 L 59.5 370 L 55.5 372 L 54.5 371 L 52.5 370 L 51.5 372 Q 50 368.5 48.5 371 L 46.5 372 L 46.5 370 Q 44.3 369.3 45 371.5 L 44 371.5 L 43.5 370 L 39.5 372 L 38.5 371 L 36.5 370 L 35.5 372 Q 33.8 368.9 32 370.5 L 27 346.5 L 26 328.5 L 25 327.5 L 25 290.5 L 25 288.5 L 25.5 286 Z M 34 368 L 34 370 L 36 369 L 34 368 Z M 41 368 L 39 370 L 41 370 L 41 368 Z M 50 368 L 50 370 L 52 369 L 50 368 Z M 57 368 L 55 370 L 57 370 L 57 368 Z M 66 368 L 66 370 L 68 369 L 66 368 Z M 73 368 L 71 370 L 73 370 L 73 368 Z M 82 368 L 82 370 L 84 369 L 82 368 Z M 89 368 L 87 370 L 89 370 L 89 368 Z M 98 368 L 98 370 L 100 369 L 98 368 Z M 105 368 L 103 370 L 105 370 L 105 368 Z M 114 368 L 114 370 L 116 369 L 114 368 Z M 121 368 L 119 370 L 121 370 L 121 368 Z M 130 368 L 130 370 L 132 369 L 130 368 Z M 137 368 L 135 370 L 137 370 L 137 368 Z M 146 368 L 146 370 L 148 369 L 146 368 Z M 153 368 L 151 370 L 153 370 L 153 368 Z M 162 368 L 162 370 L 164 369 L 162 368 Z M 169 368 L 167 370 L 169 370 L 169 368 Z M 178 368 L 178 370 L 180 369 L 178 368 Z M 185 368 L 183 370 L 185 370 L 185 368 Z M 194 368 L 194 370 L 196 369 L 194 368 Z M 201 368 L 199 370 L 201 370 L 201 368 Z M 210 368 L 210 370 L 212 369 L 210 368 Z M 217 368 L 215 370 L 217 370 L 217 368 Z M 226 368 L 226 370 L 228 369 L 226 368 Z M 233 368 L 231 370 L 233 370 L 233 368 Z " /><path fill="rgb(254,161,114)" stroke="rgb(254,161,114)" stroke-width="1" opacity="1" d="M 264.5 288 L 265.5 290 L 269.5 289 L 273.5 289 L 275.5 288 L 275.5 290 L 277.5 289 L 278.5 290 L 281 288.5 L 281.5 290 L 285.5 289 L 289.5 289 L 291.5 288 L 291.5 290 L 293.5 289 L 294.5 290 L 297 288.5 L 297.5 290 L 301.5 289 L 305.5 289 L 307.5 288 L 307.5 290 L 309.5 289 L 310.5 290 L 313 288.5 L 313.5 290 L 317.5 289 L 321.5 289 L 323.5 288 L 323.5 290 L 325.5 289 L 326.5 290 L 329 288.5 L 329.5 290 L 333.5 289 L 337.5 289 L 339.5 288 L 339.5 290 L 341.5 289 L 342.5 290 L 345 288.5 L 345.5 290 L 349.5 289 L 353.5 289 L 355.5 288 L 355.5 290 L 357.5 289 L 358.5 290 L 361 288.5 L 361.5 290 L 365.5 289 L 369.5 289 L 371.5 288 L 371.5 290 L 373.5 289 L 374.5 290 L 377 288.5 L 377.5 290 L 381.5 289 L 385.5 289 L 387.5 288 L 387.5 290 L 389.5 289 L 390.5 290 L 393 288.5 L 393.5 290 L 397.5 289 L 401.5 289 L 403.5 288 L 403.5 290 L 405.5 289 L 406.5 290 L 409 288.5 L 409.5 290 L 413.5 289 L 417.5 289 L 419.5 288 L 419.5 290 L 421.5 289 L 422.5 290 L 425 288.5 L 425.5 290 L 429.5 289 L 433.5 289 L 435.5 288 L 435.5 290 L 437.5 289 L 438.5 290 L 441 288.5 L 441.5 290 L 445.5 289 L 449.5 289 L 451.5 288 L 451.5 290 L 453.5 289 L 454.5 290 L 457 288.5 L 457.5 290 L 461.5 289 L 465.5 289 L 467.5 288 L 467.5 290 L 469.5 289 L 470.5 290 L 473 288.5 L 473.5 290 L 477.5 289 L 481.5 289 L 483.5 288 L 483.5 290 L 485.5 289 L 486.5 290 L 489 288.5 L 489.5 290 L 493.5 289 L 497.5 289 L 499.5 288 L 499.5 290 L 501.5 289 L 502.5 290 L 505 288.5 L 505.5 290 L 509.5 289 L 513.5 289 L 515.5 288 L 515.5 290 L 517.5 289 L 518.5 290 L 521 288.5 L 521.5 290 L 525.5 289 L 529.5 289 L 531.5 288 L 531.5 290 L 533.5 289 L 534.5 290 L 537 288.5 L 537.5 290 L 541.5 289 L 545.5 289 L 547.5 288 L 547.5 290 L 549.5 289 L 550.5 290 L 553 288.5 L 553.5 290 L 557.5 289 L 561.5 289 L 563.5 288 L 563.5 290 L 565.5 289 L 566.5 290 L 569 288.5 L 569.5 290 L 573.5 289 L 577.5 289 L 579.5 288 L 579.5 290 L 581.5 289 L 582.5 290 L 585 288.5 L 585.5 290 L 590 289 L 591 292.5 L 591 321.5 L 590 322.5 L 590 334.5 L 589 335.5 L 588 350.5 Q 585 357 585 366.5 L 583 369.5 L 583.5 371 L 580.5 370 L 579.5 372 Q 578 368.5 576.5 371 L 574.5 372 L 574.5 370 Q 572.3 369.3 573 371.5 L 572 371.5 L 571.5 370 L 567.5 372 L 566.5 371 L 564.5 370 L 563.5 372 Q 562 368.5 560.5 371 L 558.5 372 L 558.5 370 Q 556.3 369.3 557 371.5 L 556 371.5 L 555.5 370 L 551.5 372 L 550.5 371 L 548.5 370 L 547.5 372 Q 546 368.5 544.5 371 L 542.5 372 L 542.5 370 Q 540.3 369.3 541 371.5 L 540 371.5 L 539.5 370 L 535.5 372 L 534.5 371 L 532.5 370 L 531.5 372 Q 530 368.5 528.5 371 L 526.5 372 L 526.5 370 Q 524.3 369.3 525 371.5 L 524 371.5 L 523.5 370 L 519.5 372 L 518.5 371 L 516.5 370 L 515.5 372 Q 514 368.5 512.5 371 L 510.5 372 L 510.5 370 Q 508.3 369.3 509 371.5 L 508 371.5 L 507.5 370 L 503.5 372 L 502.5 371 L 500.5 370 L 499.5 372 Q 498 368.5 496.5 371 L 494.5 372 L 494.5 370 Q 492.3 369.3 493 371.5 L 492 371.5 L 491.5 370 L 487.5 372 L 486.5 371 L 484.5 370 L 483.5 372 Q 482 368.5 480.5 371 L 478.5 372 L 478.5 370 Q 476.3 369.3 477 371.5 L 476 371.5 L 475.5 370 L 471.5 372 L 470.5 371 L 468.5 370 L 467.5 372 Q 466 368.5 464.5 371 L 462.5 372 L 462.5 370 Q 460.3 369.3 461 371.5 L 460 371.5 L 459.5 370 L 455.5 372 L 454.5 371 L 452.5 370 L 451.5 372 Q 450 368.5 448.5 371 L 446.5 372 L 446.5 370 Q 444.3 369.3 445 371.5 L 444 371.5 L 443.5 370 L 439.5 372 L 438.5 371 L 436.5 370 L 435.5 372 Q 434 368.5 432.5 371 L 430.5 372 L 430.5 370 Q 428.3 369.3 429 371.5 L 428 371.5 L 427.5 370 L 423.5 372 L 422.5 371 L 420.5 370 L 419.5 372 Q 418 368.5 416.5 371 L 414.5 372 L 414.5 370 Q 412.3 369.3 413 371.5 L 412 371.5 L 411.5 370 L 407.5 372 L 406.5 371 L 404.5 370 L 403.5 372 Q 402 368.5 400.5 371 L 398.5 372 L 398.5 370 Q 396.3 369.3 397 371.5 L 396 371.5 L 395.5 370 L 391.5 372 L 390.5 371 L 388.5 370 L 387.5 372 Q 386 368.5 384.5 371 L 382.5 372 L 382.5 370 Q 380.3 369.3 381 371.5 L 380 371.5 L 379.5 370 L 375.5 372 L 374.5 371 L 372.5 370 L 371.5 372 Q 370 368.5 368.5 371 L 366.5 372 L 366.5 370 Q 364.3 369.3 365 371.5 L 364 371.5 L 363.5 370 L 359.5 372 L 358.5 371 L 356.5 370 L 355.5 372 Q 354 368.5 352.5 371 L 350.5 372 L 350.5 370 Q 348.3 369.3 349 371.5 L 348 371.5 L 347.5 370 L 344 370.5 L 345 368.5 L 343.5 369 L 341 368.5 L 342 366.5 Q 333.8 363.2 329 356.5 L 327.5 353 L 325.5 353 L 315.5 344 L 310.5 343 L 306 345 L 305 351.5 L 320 367.5 L 320 369 L 324 371.5 L 321.5 370 L 320.5 371 L 318.5 372 L 318.5 370 Q 316.3 369.3 317 371.5 L 316 371.5 L 315.5 370 L 311.5 372 L 310.5 371 L 308.5 370 L 307.5 372 Q 306 368.5 304.5 371 L 302.5 372 L 302.5 370 Q 300.3 369.3 301 371.5 L 300 371.5 L 299.5 370 L 295.5 372 L 294.5 371 L 292.5 370 L 291.5 372 Q 290 368.5 288.5 371 L 286.5 372 L 286.5 370 Q 284.3 369.3 285 371.5 L 284 371.5 L 283.5 370 Q 282.3 372.3 281 369.5 L 269 329.5 L 260 290.5 L 264.5 288 Z M 290 368 L 290 370 L 292 369 L 290 368 Z M 297 368 L 295 370 L 297 370 L 297 368 Z M 306 368 L 306 370 L 308 369 L 306 368 Z M 313 368 L 311 370 L 313 370 L 313 368 Z M 354 368 L 354 370 L 356 369 L 354 368 Z M 361 368 L 359 370 L 361 370 L 361 368 Z M 370 368 L 370 370 L 372 369 L 370 368 Z M 377 368 L 375 370 L 377 370 L 377 368 Z M 386 368 L 386 370 L 388 369 L 386 368 Z M 393 368 L 391 370 L 393 370 L 393 368 Z M 402 368 L 402 370 L 404 369 L 402 368 Z M 409 368 L 407 370 L 409 370 L 409 368 Z M 418 368 L 418 370 L 420 369 L 418 368 Z M 425 368 L 423 370 L 425 370 L 425 368 Z M 434 368 L 434 370 L 436 369 L 434 368 Z M 441 368 L 439 370 L 441 370 L 441 368 Z M 450 368 L 450 370 L 452 369 L 450 368 Z M 457 368 L 455 370 L 457 370 L 457 368 Z M 466 368 L 466 370 L 468 369 L 466 368 Z M 473 368 L 471 370 L 473 370 L 473 368 Z M 482 368 L 482 370 L 484 369 L 482 368 Z M 489 368 L 487 370 L 489 370 L 489 368 Z M 498 368 L 498 370 L 500 369 L 498 368 Z M 505 368 L 503 370 L 505 370 L 505 368 Z M 514 368 L 514 370 L 516 369 L 514 368 Z M 521 368 L 519 370 L 521 370 L 521 368 Z M 530 368 L 530 370 L 532 369 L 530 368 Z M 537 368 L 535 370 L 537 370 L 537 368 Z M 546 368 L 546 370 L 548 369 L 546 368 Z M 553 368 L 551 370 L 553 370 L 553 368 Z M 562 368 L 562 370 L 564 369 L 562 368 Z M 569 368 L 567 370 L 569 370 L 569 368 Z M 578 368 L 578 370 L 580 369 L 578 368 Z " /><path fill="rgb(254,161,114)" stroke="rgb(254,161,114)" stroke-width="1" opacity="1" d="M 81.5 400 L 95 400.5 L 81.5 401 L 81.5 400 Z " /><path fill="rgb(254,161,114)" stroke="rgb(254,161,114)" stroke-width="1" opacity="1" d="M 311.5 400 L 317 400.5 L 311.5 401 L 311.5 400 Z " /><path fill="rgb(254,161,114)" stroke="rgb(254,161,114)" stroke-width="1" opacity="1" d="M 523.5 400 L 536 400.5 L 523.5 401 L 523.5 400 Z " /><path fill="rgb(254,161,114)" stroke="rgb(254,161,114)" stroke-width="1" opacity="1" d="M 64.5 401 L 67 401.5 L 64.5 402 L 64.5 401 Z " /><path fill="rgb(254,161,114)" stroke="rgb(254,161,114)" stroke-width="1" opacity="1" d="M 109.5 401 L 112 401.5 L 109.5 402 L 109.5 401 Z " /><path fill="rgb(254,161,114)" stroke="rgb(254,161,114)" stroke-width="1" opacity="1" d="M 328.5 401 L 331 401.5 L 328.5 402 L 328.5 401 Z " /><path fill="rgb(254,161,114)" stroke="rgb(254,161,114)" stroke-width="1" opacity="1" d="M 506.5 401 L 509 401.5 L 506.5 402 L 506.5 401 Z " /><path fill="rgb(254,161,114)" stroke="rgb(254,161,114)" stroke-width="1" opacity="1" d="M 550.5 401 L 553 401.5 L 550.5 402 L 550.5 401 Z " /><path fill="rgb(253,127,112)" stroke="rgb(253,127,112)" stroke-width="1" opacity="1" d="M 381.5 85 L 382 87.5 L 381 87.5 L 381.5 85 Z " /><path fill="rgb(253,127,112)" stroke="rgb(253,127,112)" stroke-width="1" opacity="1" d="M 24.5 306 L 25 308.5 L 24 308.5 L 24.5 306 Z " /><path fill="rgb(253,127,112)" stroke="rgb(253,127,112)" stroke-width="1" opacity="1" d="M 231.5 317 L 232 319.5 L 231 319.5 L 231.5 317 Z " /><path fill="rgb(253,127,112)" stroke="rgb(253,127,112)" stroke-width="1" opacity="1" d="M 590.5 322 L 591 324.5 L 590 324.5 L 590.5 322 Z " /><path fill="rgb(253,127,112)" stroke="rgb(253,127,112)" stroke-width="1" opacity="1" d="M 232.5 327 L 233 330.5 L 232 330.5 L 232.5 327 Z " /><path fill="rgb(253,127,112)" stroke="rgb(253,127,112)" stroke-width="1" opacity="1" d="M 25.5 328 L 26 330.5 L 25 330.5 L 25.5 328 Z " /><path fill="rgb(253,127,112)" stroke="rgb(253,127,112)" stroke-width="1" opacity="1" d="M 589.5 335 L 590 337.5 L 589 337.5 L 589.5 335 Z " /><path fill="rgb(253,127,112)" stroke="rgb(253,127,112)" stroke-width="1" opacity="1" d="M 233.5 341 L 234 349.5 L 233 349.5 L 233.5 341 Z " /><path fill="rgb(253,127,112)" stroke="rgb(253,127,112)" stroke-width="1" opacity="1" d="M 310.5 343 L 314 343.5 L 310.5 344 L 310.5 343 Z " /><path fill="rgb(253,127,112)" stroke="rgb(253,127,112)" stroke-width="1" opacity="1" d="M 315.5 344 L 319.5 349 L 315.5 344 Z " /><path fill="rgb(253,127,112)" stroke="rgb(253,127,112)" stroke-width="1" opacity="1" d="M 322.5 350 L 325 353.5 L 324 353.5 L 322.5 350 Z " /><path fill="rgb(253,127,112)" stroke="rgb(253,127,112)" stroke-width="1" opacity="1" d="M 306.5 353 L 324 370.5 L 324 372.5 L 321 375.5 L 303 398.5 L 302.5 401 L 300.5 401 L 288.5 401 L 288 398.5 L 279 366.5 L 280 366.5 L 282.5 371 L 283.5 369 L 282 368.5 L 283.5 368 L 286.5 370 L 286.5 368 L 288 368.5 L 288.5 367 L 289 368.5 L 287.5 371 L 290 369.5 Q 289.3 367.3 291.5 368 L 290 370.5 L 291.5 372 L 293.5 368 L 294 369.5 L 293.5 371 L 295.5 372 L 296.5 370 L 295 369.5 L 297 368.5 L 298.5 371 L 299.5 369 L 298 368.5 L 299.5 368 L 302.5 370 L 302.5 368 L 304 368.5 L 304.5 367 L 305 368.5 L 303.5 371 L 306 369.5 Q 305.3 367.3 307.5 368 L 306 370.5 L 307.5 372 L 309.5 368 L 310 369.5 L 309.5 371 L 311.5 372 L 312.5 370 L 311 369.5 L 313 368.5 L 314.5 371 L 315.5 369 L 314 368.5 L 315.5 368 L 318.5 370 L 318.5 368 L 320 368.5 L 306.5 353 Z M 321 369 L 320 371 L 322 370 L 321 369 Z " /><path fill="rgb(253,127,112)" stroke="rgb(253,127,112)" stroke-width="1" opacity="1" d="M 328.5 356 L 338 364.5 L 335.5 368 L 337 365.5 L 328.5 357 L 325 359.5 L 328.5 356 Z " /><path fill="rgb(253,127,112)" stroke="rgb(253,127,112)" stroke-width="1" opacity="1" d="M 32.5 367 L 33 368.5 L 31 369.5 L 32.5 367 Z " /><path fill="rgb(253,127,112)" stroke="rgb(253,127,112)" stroke-width="1" opacity="1" d="M 48.5 367 L 49 368.5 L 47.5 371 L 50 369.5 Q 49.3 367.3 51.5 368 L 50 370.5 L 51.5 372 L 53.5 368 L 54 369.5 L 53.5 371 L 55.5 372 L 56.5 370 L 55 369.5 L 57 368.5 L 58.5 371 L 59.5 369 L 58 368.5 L 59.5 368 L 62.5 370 L 62.5 368 L 64 368.5 L 64.5 367 L 65 368.5 L 63.5 371 L 66 369.5 Q 65.3 367.3 67.5 368 L 66 370.5 L 67.5 372 L 69.5 368 L 70 369.5 L 69.5 371 L 71.5 372 L 72.5 370 L 71 369.5 L 73 368.5 L 74.5 371 L 75.5 369 L 74 368.5 L 75.5 368 L 78.5 370 L 78.5 368 L 80 368.5 L 80.5 367 L 81 368.5 L 79.5 371 L 82 369.5 Q 81.3 367.3 83.5 368 L 82 370.5 L 83.5 372 L 85.5 368 L 86 369.5 L 85.5 371 L 87.5 372 L 88.5 370 L 87 369.5 L 89 368.5 L 90.5 371 L 91.5 369 L 90 368.5 L 91.5 368 L 94.5 370 L 94.5 368 L 96 368.5 L 96.5 367 L 97 368.5 L 95.5 371 L 98 369.5 Q 97.3 367.3 99.5 368 L 98 370.5 L 99.5 372 L 101.5 368 L 102 369.5 L 101.5 371 L 103.5 372 L 104.5 370 L 103 369.5 L 105 368.5 L 106.5 371 L 107.5 369 L 106 368.5 L 107.5 368 L 110.5 370 L 110.5 368 L 112 368.5 L 112.5 367 L 113 368.5 L 111.5 371 L 114 369.5 Q 113.3 367.3 115.5 368 L 114 370.5 L 115.5 372 L 117.5 368 L 118 369.5 L 117.5 371 L 119.5 372 L 120.5 370 L 119 369.5 L 121 368.5 L 122.5 371 L 123.5 369 L 122 368.5 L 123.5 368 L 126.5 370 L 126.5 368 L 128 368.5 L 128.5 367 L 129 368.5 L 127.5 371 L 130 369.5 Q 129.3 367.3 131.5 368 L 130 370.5 L 131.5 372 L 133.5 368 L 134 369.5 L 133.5 371 L 135.5 372 L 136.5 370 L 135 369.5 L 137 368.5 L 138.5 371 L 139.5 369 L 138 368.5 L 139.5 368 L 142.5 370 L 142.5 368 L 144 368.5 L 144.5 367 L 145 368.5 L 143.5 371 L 146 369.5 Q 145.3 367.3 147.5 368 L 146 370.5 L 147.5 372 L 149.5 368 L 150 369.5 L 149.5 371 L 151.5 372 L 152.5 370 L 151 369.5 L 153 368.5 L 154.5 371 L 155.5 369 L 154 368.5 L 155.5 368 L 158.5 370 L 158.5 368 L 160 368.5 L 160.5 367 L 161 368.5 L 159.5 371 L 162 369.5 Q 161.3 367.3 163.5 368 L 162 370.5 L 163.5 372 L 165.5 368 L 166 369.5 L 165.5 371 L 167.5 372 L 168.5 370 L 167 369.5 L 169 368.5 L 170.5 371 L 171.5 369 L 170 368.5 L 171.5 368 L 174.5 370 L 174.5 368 L 176 368.5 L 176.5 367 L 177 368.5 L 175.5 371 L 178 369.5 Q 177.3 367.3 179.5 368 L 178 370.5 L 179.5 372 L 181.5 368 L 182 369.5 L 181.5 371 L 183.5 372 L 184.5 370 L 183 369.5 L 185 368.5 L 186.5 371 L 187.5 369 L 186 368.5 L 187.5 368 L 190.5 370 L 190.5 368 L 192 368.5 L 192.5 367 L 193 368.5 L 191.5 371 L 194 369.5 Q 193.3 367.3 195.5 368 L 194 370.5 L 195.5 372 L 197.5 368 L 198 369.5 L 197.5 371 L 199.5 372 L 200.5 370 L 199 369.5 L 201 368.5 L 202.5 371 L 203.5 369 L 202 368.5 L 203.5 368 L 206.5 370 L 206.5 368 L 208 368.5 L 208.5 367 L 209 368.5 L 207.5 371 L 210 369.5 Q 209.3 367.3 211.5 368 L 210 370.5 L 211.5 372 L 213.5 368 L 214 369.5 L 213.5 371 L 215.5 372 L 216.5 370 L 215 369.5 L 217 368.5 L 218.5 371 L 219.5 369 L 218 368.5 L 219.5 368 L 222.5 370 L 222.5 368 L 224 368.5 L 224.5 367 L 225 368.5 L 223.5 371 L 226 369.5 Q 225.3 367.3 227.5 368 L 226 370.5 L 227.5 372 L 229.5 368 L 230 369.5 L 229.5 371 L 231.5 372 L 232.5 370 L 231 369.5 L 233 368.5 L 234 370.5 L 234 402.5 L 233 403.5 L 233 414 Q 215.9 419.2 201.5 428 L 173.5 415 L 142.5 406 L 120.5 402 L 112.5 402 L 111.5 401 L 81.5 400 L 80.5 401 L 55.5 402 L 41.5 405 L 33 378.5 L 32 371.5 L 34 368 L 36 368.5 Q 32.3 370.2 35.5 372 L 37.5 368 L 38 369.5 L 37.5 371 L 39.5 372 L 40.5 370 L 39 369.5 L 41 368.5 L 42.5 371 L 43.5 369 L 42 368.5 L 43.5 368 L 46.5 370 L 46.5 368 L 48 368.5 L 48.5 367 Z " /><path fill="rgb(253,127,112)" stroke="rgb(253,127,112)" stroke-width="1" opacity="1" d="M 352.5 367 L 353 368.5 L 351.5 371 L 354 369.5 Q 353.3 367.3 355.5 368 L 354 370.5 L 355.5 372 L 357.5 368 L 358 369.5 L 357.5 371 L 359.5 372 L 360.5 370 L 359 369.5 L 361 368.5 L 362.5 371 L 363.5 369 L 362 368.5 L 363.5 368 L 366.5 370 L 366.5 368 L 368 368.5 L 368.5 367 L 369 368.5 L 367.5 371 L 370 369.5 Q 369.3 367.3 371.5 368 L 370 370.5 L 371.5 372 L 373.5 368 L 374 369.5 L 373.5 371 L 375.5 372 L 376.5 370 L 375 369.5 L 377 368.5 L 378.5 371 L 379.5 369 L 378 368.5 L 379.5 368 L 382.5 370 L 382.5 368 L 384 368.5 L 384.5 367 L 385 368.5 L 383.5 371 L 386 369.5 Q 385.3 367.3 387.5 368 L 386 370.5 L 387.5 372 L 389.5 368 L 390 369.5 L 389.5 371 L 391.5 372 L 392.5 370 L 391 369.5 L 393 368.5 L 394.5 371 L 395.5 369 L 394 368.5 L 395.5 368 L 398.5 370 L 398.5 368 L 400 368.5 L 400.5 367 L 401 368.5 L 399.5 371 L 402 369.5 Q 401.3 367.3 403.5 368 L 402 370.5 L 403.5 372 L 405.5 368 L 406 369.5 L 405.5 371 L 407.5 372 L 408.5 370 L 407 369.5 L 409 368.5 L 410.5 371 L 411.5 369 L 410 368.5 L 411.5 368 L 414.5 370 L 414.5 368 L 416 368.5 L 416.5 367 L 417 368.5 L 415.5 371 L 418 369.5 Q 417.3 367.3 419.5 368 L 418 370.5 L 419.5 372 L 421.5 368 L 422 369.5 L 421.5 371 L 423.5 372 L 424.5 370 L 423 369.5 L 425 368.5 L 426.5 371 L 427.5 369 L 426 368.5 L 427.5 368 L 430.5 370 L 430.5 368 L 432 368.5 L 432.5 367 L 433 368.5 L 431.5 371 L 434 369.5 Q 433.3 367.3 435.5 368 L 434 370.5 L 435.5 372 L 437.5 368 L 438 369.5 L 437.5 371 L 439.5 372 L 440.5 370 L 439 369.5 L 441 368.5 L 442.5 371 L 443.5 369 L 442 368.5 L 443.5 368 L 446.5 370 L 446.5 368 L 448 368.5 L 448.5 367 L 449 368.5 L 447.5 371 L 450 369.5 Q 449.3 367.3 451.5 368 L 450 370.5 L 451.5 372 L 453.5 368 L 454 369.5 L 453.5 371 L 455.5 372 L 456.5 370 L 455 369.5 L 457 368.5 L 458.5 371 L 459.5 369 L 458 368.5 L 459.5 368 L 462.5 370 L 462.5 368 L 464 368.5 L 464.5 367 L 465 368.5 L 463.5 371 L 466 369.5 Q 465.3 367.3 467.5 368 L 466 370.5 L 467.5 372 L 469.5 368 L 470 369.5 L 469.5 371 L 471.5 372 L 472.5 370 L 471 369.5 L 473 368.5 L 474.5 371 L 475.5 369 L 474 368.5 L 475.5 368 L 478.5 370 L 478.5 368 L 480 368.5 L 480.5 367 L 481 368.5 L 479.5 371 L 482 369.5 Q 481.3 367.3 483.5 368 L 482 370.5 L 483.5 372 L 485.5 368 L 486 369.5 L 485.5 371 L 487.5 372 L 488.5 370 L 487 369.5 L 489 368.5 L 490.5 371 L 491.5 369 L 490 368.5 L 491.5 368 L 494.5 370 L 494.5 368 L 496 368.5 L 496.5 367 L 497 368.5 L 495.5 371 L 498 369.5 Q 497.3 367.3 499.5 368 L 498 370.5 L 499.5 372 L 501.5 368 L 502 369.5 L 501.5 371 L 503.5 372 L 504.5 370 L 503 369.5 L 505 368.5 L 506.5 371 L 507.5 369 L 506 368.5 L 507.5 368 L 510.5 370 L 510.5 368 L 512 368.5 L 512.5 367 L 513 368.5 L 511.5 371 L 514 369.5 Q 513.3 367.3 515.5 368 L 514 370.5 L 515.5 372 L 517.5 368 L 518 369.5 L 517.5 371 L 519.5 372 L 520.5 370 L 519 369.5 L 521 368.5 L 522.5 371 L 523.5 369 L 522 368.5 L 523.5 368 L 526.5 370 L 526.5 368 L 528 368.5 L 528.5 367 L 529 368.5 L 527.5 371 L 530 369.5 Q 529.3 367.3 531.5 368 L 530 370.5 L 531.5 372 L 533.5 368 L 534 369.5 L 533.5 371 L 535.5 372 L 536.5 370 L 535 369.5 L 537 368.5 L 538.5 371 L 539.5 369 L 538 368.5 L 539.5 368 L 542.5 370 L 542.5 368 L 544 368.5 L 544.5 367 L 545 368.5 L 543.5 371 L 546 369.5 Q 545.3 367.3 547.5 368 L 546 370.5 L 547.5 372 L 549.5 368 L 550 369.5 L 549.5 371 L 551.5 372 L 552.5 370 L 551 369.5 L 553 368.5 L 554.5 371 L 555.5 369 L 554 368.5 L 555.5 368 L 558.5 370 L 558.5 368 L 560 368.5 L 560.5 367 L 561 368.5 L 559.5 371 L 562 369.5 Q 561.3 367.3 563.5 368 L 562 370.5 L 563.5 372 L 565.5 368 L 566 369.5 L 565.5 371 L 567.5 372 L 568.5 370 L 567 369.5 L 569 368.5 L 570.5 371 L 571.5 369 L 570 368.5 L 571.5 368 L 574.5 370 L 574.5 368 L 576 368.5 L 576.5 367 L 577 368.5 L 575.5 371 L 578 369.5 Q 577.3 367.3 579.5 368 L 578 370.5 L 579.5 372 L 581.5 368 L 582 369.5 L 581.5 371 Q 584.8 369.9 584 372.5 L 580 387.5 L 573.5 404 L 562.5 403 L 561.5 402 L 553.5 402 L 552.5 401 L 523.5 400 L 522.5 401 L 506.5 401 L 505.5 402 L 490.5 403 L 462.5 409 L 431.5 420 L 415.5 428 L 388 414.5 L 407 399.5 L 397.5 398 L 380.5 412 L 378.5 412 L 368.5 409 L 365 405.5 L 351.5 390 L 342.5 389 L 346 393.5 L 355 404.5 L 351.5 405 L 338.5 402 L 311.5 400 L 310 400.5 L 329.5 376 Q 331.3 379.8 333 376.5 L 335 371 L 338.5 371 L 344.5 368 L 346.5 371 L 347.5 369 L 346 368.5 L 347.5 368 L 350.5 370 L 350.5 368 L 352 368.5 L 352.5 367 Z M 361 376 Q 357 379 358 384 L 361 385 Q 364 383 363 378 L 361 376 Z M 381 379 L 379 381 L 378 387 L 382 388 Q 384 386 383 381 L 381 379 Z M 399 382 L 398 389 Q 401 394 403 389 L 403 382 L 399 382 Z " /><path fill="rgb(142,67,3)" stroke="rgb(142,67,3)" stroke-width="1" opacity="1" d="M 482.5 84 L 483.5 86 L 482.5 84 Z " /><path fill="rgb(142,67,3)" stroke="rgb(142,67,3)" stroke-width="1" opacity="1" d="M 487.5 88 L 488.5 90 L 487.5 88 Z " /><path fill="rgb(142,67,3)" stroke="rgb(142,67,3)" stroke-width="1" opacity="1" d="M 494.5 94 L 495.5 96 L 494.5 94 Z " /><path fill="rgb(142,67,3)" stroke="rgb(142,67,3)" stroke-width="1" opacity="1" d="M 506.5 105 L 510.5 110 L 506.5 105 Z " /><path fill="rgb(142,67,3)" stroke="rgb(142,67,3)" stroke-width="1" opacity="1" d="M 519.5 119 L 521.5 122 L 519.5 119 Z " /><path fill="rgb(142,67,3)" stroke="rgb(142,67,3)" stroke-width="1" opacity="1" d="M 525.5 126 L 527.5 129 L 525.5 126 Z " /><path fill="rgb(142,67,3)" stroke="rgb(142,67,3)" stroke-width="1" opacity="1" d="M 529.5 131 L 530.5 133 L 529.5 131 Z " /><path fill="rgb(142,67,3)" stroke="rgb(142,67,3)" stroke-width="1" opacity="1" d="M 533.5 136 L 534.5 138 L 533.5 136 Z " /><path fill="rgb(142,67,3)" stroke="rgb(142,67,3)" stroke-width="1" opacity="1" d="M 536.5 140 L 537.5 142 L 536.5 140 Z " /><path fill="rgb(142,67,3)" stroke="rgb(142,67,3)" stroke-width="1" opacity="1" d="M 218 196 L 223 199.5 L 245 227.5 L 257 276.5 L 261 298.5 L 288 402 L 278.5 402 L 257.5 406 L 233.5 414 L 233 403.5 L 234 402.5 L 234 341.5 L 233 340.5 L 233 327.5 L 232 326.5 L 230 301.5 L 229 300.5 L 222 253.5 L 218 237.5 L 218 227.5 L 219 226.5 L 219 203.5 L 218 202.5 L 218 196 Z " /><path fill="rgb(142,67,3)" stroke="rgb(142,67,3)" stroke-width="1" opacity="1" d="M 588.5 267 L 589 269.5 L 588 269.5 L 588.5 267 Z " /><path fill="rgb(142,67,3)" stroke="rgb(142,67,3)" stroke-width="1" opacity="1" d="M 26.5 271 L 27 273.5 L 26 273.5 L 26.5 271 Z " /><path fill="rgb(142,67,3)" stroke="rgb(142,67,3)" stroke-width="1" opacity="1" d="M 589.5 275 L 590 277.5 L 589 277.5 L 589.5 275 Z " /><path fill="rgb(142,67,3)" stroke="rgb(142,67,3)" stroke-width="1" opacity="1" d="M 25.5 280 L 26 283.5 L 25 283.5 L 25.5 280 Z " /><path fill="rgb(142,67,3)" stroke="rgb(142,67,3)" stroke-width="1" opacity="1" d="M 590.5 285 L 591 289.5 L 590 289.5 L 590.5 285 Z " /><path fill="rgb(142,67,3)" stroke="rgb(142,67,3)" stroke-width="1" opacity="1" d="M 24.5 293 L 25 305.5 L 24 305.5 L 24.5 293 Z " /><path fill="rgb(142,67,3)" stroke="rgb(142,67,3)" stroke-width="1" opacity="1" d="M 24.5 309 L 25 322.5 L 24 322.5 L 24.5 309 Z " /><path fill="rgb(142,67,3)" stroke="rgb(142,67,3)" stroke-width="1" opacity="1" d="M 590.5 325 L 591 329.5 L 590 329.5 L 590.5 325 Z " /><path fill="rgb(142,67,3)" stroke="rgb(142,67,3)" stroke-width="1" opacity="1" d="M 25.5 331 L 26 335.5 L 25 335.5 L 25.5 331 Z " /><path fill="rgb(142,67,3)" stroke="rgb(142,67,3)" stroke-width="1" opacity="1" d="M 589.5 338 L 590 340.5 L 589 340.5 L 589.5 338 Z " /><path fill="rgb(142,67,3)" stroke="rgb(142,67,3)" stroke-width="1" opacity="1" d="M 26.5 341 L 27 343.5 L 26 343.5 L 26.5 341 Z " /><path fill="rgb(142,67,3)" stroke="rgb(142,67,3)" stroke-width="1" opacity="1" d="M 309.5 344 L 314.5 344 L 324 352.5 Q 325 356.3 322 355 L 322 358.5 L 325.5 360 L 328.5 357 L 337 365.5 L 334 369.5 L 335 372.5 L 331.5 378 L 329 376.5 L 309.5 401 L 303 401 L 303 398.5 L 321 376.5 L 324 370.5 L 306 352.5 L 305 349.5 L 307.5 345 L 309.5 344 Z " /><path fill="rgb(142,67,3)" stroke="rgb(142,67,3)" stroke-width="1" opacity="1" d="M 588.5 345 L 589 347.5 L 588 347.5 L 588.5 345 Z " /><path fill="rgb(142,67,3)" stroke="rgb(142,67,3)" stroke-width="1" opacity="1" d="M 27.5 349 L 28 351.5 L 27 351.5 L 27.5 349 Z " /><path fill="rgb(142,67,3)" stroke="rgb(142,67,3)" stroke-width="1" opacity="1" d="M 338.5 385 L 342.5 389 L 351.5 390 L 357 395.5 L 368 408.5 L 366.5 408 L 356.5 406 L 354 403.5 L 338.5 385 Z " /><path fill="rgb(142,67,3)" stroke="rgb(142,67,3)" stroke-width="1" opacity="1" d="M 397.5 398 L 407 399.5 L 386.5 415 L 381 413 L 384.5 408 L 397.5 398 Z " /><path fill="rgb(142,67,3)" stroke="rgb(142,67,3)" stroke-width="1" opacity="1" d="M 501.5 514 L 497.5 519 L 501.5 514 Z " /><path fill="rgb(142,67,3)" stroke="rgb(142,67,3)" stroke-width="1" opacity="1" d="M 118.5 518 L 119.5 520 L 118.5 518 Z " /><path fill="rgb(142,67,3)" stroke="rgb(142,67,3)" stroke-width="1" opacity="1" d="M 491.5 523 L 490.5 525 L 491.5 523 Z " /><path fill="rgb(142,67,3)" stroke="rgb(142,67,3)" stroke-width="1" opacity="1" d="M 485.5 528 L 484.5 530 L 485.5 528 Z " /><path fill="rgb(142,67,3)" stroke="rgb(142,67,3)" stroke-width="1" opacity="1" d="M 288.5 590 L 291 590.5 L 288.5 591 L 288.5 590 Z " /><path fill="rgb(142,67,3)" stroke="rgb(142,67,3)" stroke-width="1" opacity="1" d="M 325.5 590 L 328 590.5 L 325.5 591 L 325.5 590 Z " /><path fill="rgb(1,155,173)" stroke="rgb(1,155,173)" stroke-width="1" opacity="1" d="M 296.5 24 L 319 24.5 L 296.5 25 L 296.5 24 Z " /><path fill="rgb(1,155,173)" stroke="rgb(1,155,173)" stroke-width="1" opacity="1" d="M 281.5 25 L 287 25.5 L 281.5 26 L 281.5 25 Z " /><path fill="rgb(1,155,173)" stroke="rgb(1,155,173)" stroke-width="1" opacity="1" d="M 329.5 25 L 334 25.5 L 329.5 26 L 329.5 25 Z " /><path fill="rgb(1,155,173)" stroke="rgb(1,155,173)" stroke-width="1" opacity="1" d="M 272.5 26 L 276 26.5 L 272.5 27 L 272.5 26 Z " /><path fill="rgb(1,155,173)" stroke="rgb(1,155,173)" stroke-width="1" opacity="1" d="M 340.5 26 L 343 26.5 L 340.5 27 L 340.5 26 Z " /><path fill="rgb(1,155,173)" stroke="rgb(1,155,173)" stroke-width="1" opacity="1" d="M 264.5 27 L 268 27.5 L 264.5 28 L 264.5 27 Z " /><path fill="rgb(1,155,173)" stroke="rgb(1,155,173)" stroke-width="1" opacity="1" d="M 348.5 27 L 351 27.5 L 348.5 28 L 348.5 27 Z " /><path fill="rgb(1,155,173)" stroke="rgb(1,155,173)" stroke-width="1" opacity="1" d="M 354.5 28 L 357 28.5 L 354.5 29 L 354.5 28 Z " /><path fill="rgb(1,155,173)" stroke="rgb(1,155,173)" stroke-width="1" opacity="1" d="M 253.5 29 L 256 29.5 L 253.5 30 L 253.5 29 Z " /><path fill="rgb(1,155,173)" stroke="rgb(1,155,173)" stroke-width="1" opacity="1" d="M 67.5 401 L 108.5 401 L 109.5 402 L 118.5 402 L 141.5 406 L 175.5 416 L 201 428.5 L 169.5 448 L 137 477.5 L 110.5 510 L 105 505.5 L 79 475.5 L 72 463 Q 69.3 464.1 70 461.5 L 59 444.5 L 48 422.5 L 42 405 L 57.5 402 L 66.5 402 L 67.5 401 Z " /><path fill="rgb(1,155,173)" stroke="rgb(1,155,173)" stroke-width="1" opacity="1" d="M 509.5 401 L 549.5 401 L 550.5 402 L 559.5 402 L 560.5 403 L 574 404 L 568 421.5 L 547 460.5 L 528 486.5 L 506.5 509 Q 491.4 488.1 473.5 470 L 451.5 451 L 446 448 Q 447.1 445.3 444.5 446 L 417 429 Q 415.9 426.3 418.5 427 Q 435.7 417.2 456.5 411 L 485.5 404 L 491.5 404 L 499.5 402 L 508.5 402 L 509.5 401 Z " /><path fill="rgb(147,184,0)" stroke="rgb(147,184,0)" stroke-width="1" opacity="1" d="M 203.5 160 L 204.5 162 L 203.5 160 Z " /><path fill="rgb(147,184,0)" stroke="rgb(147,184,0)" stroke-width="1" opacity="1" d="M 342.5 162 L 343.5 164 L 342.5 162 Z " /><path fill="rgb(147,184,0)" stroke="rgb(147,184,0)" stroke-width="1" opacity="1" d="M 345.5 165 L 346.5 167 L 345.5 165 Z " /><path fill="rgb(147,184,0)" stroke="rgb(147,184,0)" stroke-width="1" opacity="1" d="M 245.5 227 L 246.5 229 L 245.5 227 Z " /><path fill="rgb(147,184,0)" stroke="rgb(147,184,0)" stroke-width="1" opacity="1" d="M 101.5 258 L 102 260.5 L 101 260.5 L 101.5 258 Z " /><path fill="rgb(147,184,0)" stroke="rgb(147,184,0)" stroke-width="1" opacity="1" d="M 130.5 276 L 112.5 295 L 130.5 276 Z " /><path fill="rgb(147,184,0)" stroke="rgb(147,184,0)" stroke-width="1" opacity="1" d="M 101.5 283 L 102 285.5 L 101 285.5 L 101.5 283 Z " /><path fill="rgb(147,184,0)" stroke="rgb(147,184,0)" stroke-width="1" opacity="1" d="M 288.5 401 Q 289.8 403.2 294.5 402 L 295.5 401 L 312.5 401 L 316 403 L 316.5 405 L 318.5 404 L 318.5 406 Q 324.7 406.3 327.5 410 L 329 409.5 L 328.5 411 L 331.5 413 L 332.5 411 L 334.5 414 L 337 413 L 337.5 415 L 338.5 414 L 341.5 417 L 344.5 419 L 344.5 417 L 348 419 Q 346.9 421.7 349.5 421 L 351 420.5 L 350.5 422 L 354 423 Q 352.9 425.7 355.5 425 L 357.5 426 L 357.5 424 L 360.5 428 L 362 427.5 Q 361.3 429.8 363.5 429 L 366 429.5 Q 365.3 431.8 367.5 431 L 369 430.5 L 368 432.5 L 369.5 433 L 371 432.5 Q 370.3 434.8 372.5 434 L 375 433 Q 373.9 435.7 376.5 435 L 380 437 L 379.5 439 L 370.5 435 L 342.5 428 L 327.5 427 L 326.5 426 L 291.5 426 L 290.5 427 L 276.5 428 L 255.5 433 Q 230.6 440.5 211 452 L 211 454 Q 213.7 452.9 213 455.5 L 215 455.5 L 215.5 457 L 217.5 457 Q 220.1 456.3 219 459 L 221.5 459 L 239.5 468 L 242.5 471 L 243.5 470 L 246.5 473 L 257 477 L 257.5 479 Q 259 476.5 260.5 480 L 271 484.5 L 270.5 486 L 275.5 487 L 287.5 494 L 289 493.5 L 290.5 496 Q 292 493.5 293.5 497 L 296.5 499 L 298.5 499 L 301.5 501 L 306.5 504 L 308 503.5 L 307.5 505 L 309.5 506 Q 310.8 503.7 312 506.5 L 312.5 508 Q 314 505.5 315.5 509 L 321.5 511 L 324.5 514 Q 326 511.5 327.5 515 L 332.5 518 L 334.5 518 L 344.5 524 L 346 523.5 Q 345.3 525.8 347.5 525 L 352 527 Q 350.9 529.7 353.5 529 L 355 528.5 Q 354.3 530.8 356.5 530 L 364 533 L 364.5 535 L 366 534.5 Q 365.2 537.1 368.5 536 L 377 540 Q 375.9 542.7 378.5 542 L 380 541.5 L 381.5 544 L 383 543.5 Q 382.2 546.1 385.5 545 L 392 548 L 392.5 550 L 394.5 549 L 404.5 556 L 406 555.5 Q 405.2 558.1 408.5 557 L 417.5 563 L 420 562 Q 418.9 564.7 421.5 564 L 426 565.5 L 391.5 579 L 363.5 586 L 345.5 588 L 344.5 589 L 337.5 589 L 336.5 590 L 324.5 590 L 323.5 591 L 293.5 591 L 292.5 590 L 280.5 590 L 279.5 589 L 264.5 588 Q 258 585 248.5 585 Q 218.6 578.4 193.5 567 Q 145.9 545.6 111 511.5 Q 128.2 484.7 151.5 464 Q 180.1 437.6 217.5 420 L 253.5 407 L 278.5 402 L 287.5 402 L 288.5 401 Z " /><path fill="rgb(147,184,0)" stroke="rgb(147,184,0)" stroke-width="1" opacity="1" d="M 383.5 438 L 385 440.5 L 383 439.5 L 383.5 438 Z " /><path fill="rgb(147,184,0)" stroke="rgb(147,184,0)" stroke-width="1" opacity="1" d="M 444.5 446 L 445.5 448 L 444.5 446 Z " /><path fill="rgb(147,184,0)" stroke="rgb(147,184,0)" stroke-width="1" opacity="1" d="M 453.5 453 L 454.5 455 L 453.5 453 Z " /><path fill="rgb(147,184,0)" stroke="rgb(147,184,0)" stroke-width="1" opacity="1" d="M 416.5 455 L 417 457 L 423 459.5 Q 420.7 463.2 418.5 458 L 416 456.5 L 416.5 455 Z " /><path fill="rgb(147,184,0)" stroke="rgb(147,184,0)" stroke-width="1" opacity="1" d="M 460.5 459 L 461.5 461 L 460.5 459 Z " /><path fill="rgb(147,184,0)" stroke="rgb(147,184,0)" stroke-width="1" opacity="1" d="M 424.5 460 L 428 461 L 429.5 464 L 431.5 463 L 431.5 465 L 439 467.5 L 438.5 469 L 440.5 470 L 442.5 469 L 449 473 L 449.5 475 L 450.5 473 L 452.5 477 L 453.5 475 L 454 477 L 458.5 479 L 459.5 478 L 462.5 481 L 464.5 482 L 466.5 482 L 469 482.5 L 468.5 484 Q 470.8 483.3 470 485.5 L 472.5 486 L 475.5 488 L 477 487.5 L 477.5 489 L 479 488.5 L 479.5 490 L 481 489.5 L 482.5 492 L 484 491.5 Q 483.1 494.5 487.5 493 L 487.5 495 L 489.5 494 L 492.5 497 L 495.5 496 L 499 499.5 L 506 510.5 L 486.5 528 L 487 526.5 Q 472.5 503 452.5 485 L 423 461.5 L 424.5 460 Z " /><path fill="rgb(147,184,0)" stroke="rgb(147,184,0)" stroke-width="1" opacity="1" d="M 469.5 467 L 481.5 480 L 469.5 467 Z " /><path fill="rgb(147,184,0)" stroke="rgb(147,184,0)" stroke-width="1" opacity="1" d="M 485.5 484 L 489.5 489 L 485.5 484 Z " /><path fill="rgb(147,184,0)" stroke="rgb(147,184,0)" stroke-width="1" opacity="1" d="M 492.5 492 L 494.5 495 L 492.5 492 Z " /><path fill="rgb(147,184,0)" stroke="rgb(147,184,0)" stroke-width="1" opacity="1" d="M 467.5 541 L 466.5 543 L 467.5 541 Z " /><path fill="rgb(205,216,0)" stroke="rgb(205,216,0)" stroke-width="1" opacity="1" d="M 290.5 401 L 295 401.5 L 290.5 402 L 290.5 401 Z " /><path fill="rgb(205,216,0)" stroke="rgb(205,216,0)" stroke-width="1" opacity="1" d="M 313.5 401 L 326.5 401 L 327.5 402 L 336.5 402 L 337.5 403 L 349.5 404 L 357.5 407 L 373.5 410 L 406.5 423 Q 452.4 446.6 485 483.5 L 495 496.5 L 493.5 498 L 490.5 495 L 488.5 495 L 487 494.5 L 487.5 493 Q 483.1 494.5 484 491.5 L 481 490.5 L 480.5 489 L 479 489.5 L 478.5 488 L 477 488.5 L 476.5 487 Q 475 489.5 473.5 486 L 471.5 485 L 470 485.5 Q 470.8 483.3 468.5 484 L 468.5 482 L 466 482.5 L 466.5 484 L 459.5 478 L 457.5 478 L 454 477 L 453.5 475 L 452.5 477 L 450.5 473 L 449.5 475 L 449 473 L 443.5 470 L 442 470.5 L 442.5 469 L 440.5 470 L 438 468.5 L 438.5 467 L 431 464.5 L 431.5 463 L 429.5 464 L 428 461 L 425.5 462 L 425.5 460 L 423 461.5 Q 444.7 475.8 462 494.5 Q 476.2 508.8 487 526.5 Q 471.1 541.1 451.5 552 L 426.5 565 L 422.5 565 L 420 564 Q 421.1 561.3 418.5 562 L 417.5 563 L 414.5 560 L 406 557 L 405.5 555 Q 404 557.5 402.5 554 L 393.5 549 L 392 549.5 Q 392.8 547.3 390.5 548 Q 388.3 544.5 383 545 L 382.5 543 Q 381.3 545.3 380 542.5 L 379.5 541 L 377 542 Q 378.1 539.3 375.5 540 Q 372.3 536 366 536 L 365.5 534 L 364 534.5 Q 364.8 531.9 361.5 533 L 355 530 L 354.5 528 L 352 529 Q 353.1 526.3 350.5 527 L 346 525 L 345.5 523 L 343.5 523 L 333.5 517 L 331.5 517 L 325.5 513 L 324.5 514 L 321.5 511 L 313.5 507 L 312 507.5 L 310.5 505 L 308.5 505 L 300 501 Q 301.1 498.3 298.5 499 L 296.5 499 L 293.5 497 L 289 494.5 L 288.5 493 L 286.5 494 L 283.5 491 L 270 485.5 L 270.5 484 L 258.5 478 L 257 478.5 Q 257.8 476.3 255.5 477 L 246.5 473 L 243.5 470 L 242.5 471 L 239.5 468 L 221.5 459 L 219 459 Q 220.1 456.3 217.5 457 L 215 456.5 L 214.5 455 L 213 455.5 Q 213.7 452.9 211 454 L 211 452 Q 233.5 438.8 262.5 431 L 291.5 426 L 326.5 426 L 327.5 427 L 335.5 427 L 356.5 431 L 379.5 439 L 380 437 L 375 435 Q 376.1 432.3 373.5 433 L 373.5 435 L 371 434 L 370.5 432 L 368.5 433 L 369 431.5 L 368.5 430 L 366 431 L 365.5 429 L 363.5 429 Q 361.3 429.8 362 427.5 L 360 427.5 L 359.5 426 L 357.5 426 L 354 425 Q 355.1 422.3 352.5 423 L 348 421 Q 349.1 418.3 346.5 419 L 346.5 421 L 343 419 Q 344.1 416.3 341.5 417 L 340 417.5 Q 342.3 416.3 339.5 415 Q 338.3 417.2 337 414.5 Q 337.8 412.3 335.5 413 Q 334.3 415.3 333 412.5 L 332.5 411 L 331.5 413 L 326.5 409 L 325 409.5 L 325.5 408 L 318 405.5 L 318.5 404 L 316.5 405 L 316 403 L 313.5 402 L 312 402.5 L 313.5 401 Z M 384 438 L 383 440 L 385 441 L 384 438 Z M 418 457 L 419 458 Q 421 463 423 460 L 418 457 Z " /></svg>